<svg version="1.1" xmlns="http://www.w3.org/2000/svg" xmlns:xlink="http://www.w3.org/1999/xlink" width="818" height="608" viewBox="0,0,818,608"><defs><radialGradient cx="461.29615" cy="10.25" r="149.5" gradientUnits="userSpaceOnUse" id="color-1"><stop offset="0" stop-color="#eeffd4"/><stop offset="1" stop-color="#00ccff"/></radialGradient></defs><g transform="translate(152.20386,139.25)"><g data-paper-data="{&quot;isPaintingLayer&quot;:true}" fill-rule="nonzero" stroke="none" stroke-linecap="butt" stroke-linejoin="miter" stroke-miterlimit="10" stroke-dasharray="" stroke-dashoffset="0" style="mix-blend-mode: normal"><path d="M-152.20386,468.75v-512h818v512z" fill="#00ccff" stroke-width="NaN"/><path d="M311.79615,10.25c0,-82.56657 66.93343,-149.5 149.5,-149.5c82.56657,0 149.5,66.93343 149.5,149.5c0,82.56657 -66.93343,149.5 -149.5,149.5c-82.56657,0 -149.5,-66.93343 -149.5,-149.5z" fill="url(#color-1)" stroke-width="none"/><path d="M388.79614,0.25c0,-37.27922 30.22078,-67.5 67.5,-67.5c37.27922,0 67.5,30.22078 67.5,67.5c0,37.27922 -30.22078,67.5 -67.5,67.5c-37.27922,0 -67.5,-30.22078 -67.5,-67.5z" fill="#d3ff93" stroke-width="none"/></g></g></svg>