<svg version="1.1" xmlns="http://www.w3.org/2000/svg" xmlns:xlink="http://www.w3.org/1999/xlink" width="793.49322" height="268.27231" viewBox="0,0,793.49322,268.27231"><g transform="translate(230.71636,-199.28481)"><g data-paper-data="{&quot;isPaintingLayer&quot;:true}" fill-rule="nonzero" stroke-linejoin="miter" stroke-miterlimit="10" stroke-dasharray="" stroke-dashoffset="0" style="mix-blend-mode: normal"><path d="M18.23912,463.13775v-144.02156h542.61241l-0.88387,148.44093z" fill="#965700" stroke="none" stroke-width="0" stroke-linecap="butt"/><path d="M36.06659,301.60514h524l-533,1" fill="none" stroke="#4eff00" stroke-width="37.5" stroke-linecap="round"/><g fill="none" stroke="#40d600" stroke-width="12.5" stroke-linecap="round"><g><g><path d="M554.30935,314.55066v-31.04563v30.13252"/><path d="M519.61129,313.63755v-30.13252v31.04563"/></g><g><path d="M484.00012,313.63755v-30.13252v31.04563"/><path d="M449.30206,313.63755v-30.13252v31.04563"/></g></g><g><g><path d="M410.03847,314.55066v-31.04563v30.13252"/><path d="M375.34041,314.55066v-31.04563v30.13252"/></g><g><path d="M339.72925,314.55066v-31.04563v30.13252"/><path d="M305.03119,313.63755v-30.13252v31.04563"/></g></g></g><g fill="none" stroke="#40d600" stroke-width="12.5" stroke-linecap="round"><g><path d="M269.42003,313.63754v-31.04563v30.13252"/><path d="M234.72197,312.72444v-30.13252v31.04563"/></g><g><path d="M199.1108,313.63754v-31.04563v30.13252"/><path d="M164.41274,313.63754v-31.04563v30.13252"/></g></g><path d="M552.69235,331.30014l-562.52891,-2" fill="none" stroke="#864e00" stroke-width="17.5" stroke-linecap="round"/><g fill="none" stroke="#40d600" stroke-width="12.5" stroke-linecap="round"><g><path d="M125.14915,312.72443v-30.13252v31.04563"/><path d="M90.45109,313.63754v-31.04563v30.13252"/></g><g><path d="M54.83993,312.72444v-30.13252v31.04563"/><path d="M20.14187,313.63754v-31.04563v30.13252"/></g></g><path d="M-10.72043,323.99689l562.52891,2" fill="none" stroke="#39bf00" stroke-width="17.5" stroke-linecap="round"/><path d="M560.27686,310.39841c-28.48415,0 -48.47957,-12.46507 -52.1291,-27.43738" data-paper-data="{&quot;index&quot;:null}" fill="none" stroke="#ffffff" stroke-width="5" stroke-linecap="butt"/><path d="M186.86617,279.42554c-3.64953,14.97231 -27.18045,27.43738 -55.6646,27.43738c-1.04684,0 -2.08699,-0.0156 -3.1197,-0.04641" data-paper-data="{&quot;index&quot;:null}" fill="none" stroke="#ffffff" stroke-width="5" stroke-linecap="butt"/><path d="M406.77622,283.11241c-1.92117,14.26942 -25.25148,25.54109 -53.74956,25.54109c-28.49809,0 -51.8284,-11.27166 -53.74956,-25.54109" fill="none" stroke="#ffffff" stroke-width="5" stroke-linecap="butt"/><path d="M355.67829,284.60414v23.8646" fill="none" stroke="#ffffff" stroke-width="5" stroke-linecap="round"/><path d="M-193.00681,383.58908v-144.02157h542.61241l-0.88387,148.44094z" fill="#965700" stroke="none" stroke-width="0" stroke-linecap="butt"/><path d="M-175.17934,222.05646h524l-533,1" fill="none" stroke="#4eff00" stroke-width="37.5" stroke-linecap="round"/><g fill="none" stroke="#40d600" stroke-width="12.5" stroke-linecap="round"><g><g><path d="M343.06342,235.00198v-31.04563v30.13252"/><path d="M308.36536,234.08887v-30.13252v31.04563"/></g><g><path d="M272.75419,234.08887v-30.13252v31.04563"/><path d="M238.05613,234.08887v-30.13252v31.04563"/></g></g><g><g><path d="M198.79254,235.00198v-31.04563v30.13252"/><path d="M164.09448,235.00198v-31.04563v30.13252"/></g><g><path d="M128.48332,235.00198v-31.04563v30.13252"/><path d="M93.78526,234.08887v-30.13252v31.04563"/></g></g></g><g fill="none" stroke="#40d600" stroke-width="12.5" stroke-linecap="round"><g><path d="M58.1741,234.08886v-31.04563v30.13252"/><path d="M23.47604,233.17576v-30.13252v31.04563"/></g><g><path d="M-12.13513,234.08886v-31.04563v30.13252"/><path d="M-46.83319,234.08886v-31.04563v30.13252"/></g></g><path d="M341.44642,251.75146l-562.52891,-2" fill="none" stroke="#864e00" stroke-width="17.5" stroke-linecap="round"/><g fill="none" stroke="#40d600" stroke-width="12.5" stroke-linecap="round"><g><path d="M-86.09678,233.17575v-30.13252v31.04563"/><path d="M-120.79484,234.08886v-31.04563v30.13252"/></g><g><path d="M-156.406,233.17576v-30.13252v31.04563"/><path d="M-191.10406,234.08886v-31.04563v30.13252"/></g></g><path d="M-221.96636,244.44821l562.52891,2" fill="none" stroke="#39bf00" stroke-width="17.5" stroke-linecap="round"/><path d="M349.03093,230.84973c-28.48415,0 -48.47957,-12.46507 -52.1291,-27.43738" data-paper-data="{&quot;index&quot;:null}" fill="none" stroke="#ffffff" stroke-width="5" stroke-linecap="butt"/><path d="M-24.37976,199.87686c-3.64953,14.97231 -27.18045,27.43738 -55.6646,27.43738c-1.04684,0 -2.08699,-0.0156 -3.1197,-0.04641" data-paper-data="{&quot;index&quot;:null}" fill="none" stroke="#ffffff" stroke-width="5" stroke-linecap="butt"/><path d="M195.53029,203.56373c-1.92117,14.26942 -25.25148,25.54109 -53.74956,25.54109c-28.49809,0 -51.8284,-11.27166 -53.74956,-25.54109" fill="none" stroke="#ffffff" stroke-width="5" stroke-linecap="butt"/><path d="M144.43236,205.05546v23.8646" fill="none" stroke="#ffffff" stroke-width="5" stroke-linecap="round"/></g></g></svg>