<svg version="1.1" xmlns="http://www.w3.org/2000/svg" xmlns:xlink="http://www.w3.org/1999/xlink" width="879.95531" height="183.42039" viewBox="0,0,879.95531,183.42039"><g transform="translate(270.49069,-205.47193)"><g data-paper-data="{&quot;isPaintingLayer&quot;:true}" fill-rule="nonzero" stroke-linejoin="miter" stroke-miterlimit="10" stroke-dasharray="" stroke-dashoffset="0" style="mix-blend-mode: normal"><path d="M32.38112,388.89231l-45.07758,-75.96325l622.16108,-5.30325v81.2665z" data-paper-data="{&quot;index&quot;:null}" fill="#965700" stroke="none" stroke-width="0" stroke-linecap="butt"/><path d="M70.53769,290.11476h524l-533,1" data-paper-data="{&quot;index&quot;:null}" fill="none" stroke="#4eff00" stroke-width="37.5" stroke-linecap="round"/><g data-paper-data="{&quot;index&quot;:null}" fill="none" stroke="#40d600" stroke-width="12.5" stroke-linecap="round"><g><g><path d="M556.96098,302.14717v-30.13252v31.04563"/><path d="M522.26292,302.14717v-30.13252v31.04563"/></g><g><path d="M486.65175,303.06028v-31.04563v30.13252"/><path d="M451.95369,303.06028v-31.04563v30.13252"/></g></g><g><g><path d="M412.6901,303.06028v-31.04563v30.13252"/><path d="M377.99204,302.14717v-30.13252v31.04563"/></g><g><path d="M342.38088,302.14717v-30.13252v31.04563"/><path d="M307.68282,302.14717v-30.13252v31.04563"/></g></g></g><g data-paper-data="{&quot;index&quot;:null}" fill="none" stroke="#40d600" stroke-width="12.5" stroke-linecap="round"><g><path d="M272.07166,301.23405v-30.13252v31.04563"/><path d="M237.3736,301.23406v-30.13252v31.04563"/></g><g><path d="M201.76243,301.23405v-30.13252v31.04563"/><path d="M167.06437,302.14716v-31.04563v30.13252"/></g></g><path d="M600.42156,319.80976l-597,-2" data-paper-data="{&quot;index&quot;:null}" fill="none" stroke="#864e00" stroke-width="17.5" stroke-linecap="round"/><g data-paper-data="{&quot;index&quot;:null}" fill="none" stroke="#40d600" stroke-width="12.5" stroke-linecap="round"><g><path d="M127.80078,302.14716v-31.04563v30.13252"/><path d="M93.10272,302.14716v-31.04563v30.13252"/></g><g><path d="M57.49156,302.14717v-31.04563v30.13252"/><path d="M22.7935,302.14716v-31.04563v30.13252"/></g></g><path d="M600.42156,314.50651l-597,-2" data-paper-data="{&quot;index&quot;:null}" fill="none" stroke="#39bf00" stroke-width="17.5" stroke-linecap="round"/><path d="M569.58369,298.86162c-1.03271,0.03081 -2.07286,0.04641 -3.1197,0.04641c-28.48415,0 -52.01507,-12.46507 -55.6646,-27.43738" data-paper-data="{&quot;index&quot;:null}" fill="none" stroke="#ffffff" stroke-width="5" stroke-linecap="butt"/><path d="M189.5178,267.93516c-3.64953,14.97231 -27.18045,27.43738 -55.6646,27.43738c-1.04684,0 -2.08699,-0.0156 -3.1197,-0.04641" data-paper-data="{&quot;index&quot;:null}" fill="none" stroke="#ffffff" stroke-width="5" stroke-linecap="butt"/><path d="M409.42785,271.62203c-1.92117,14.26942 -25.25148,25.54109 -53.74956,25.54109c-28.49809,0 -51.8284,-11.27166 -53.74956,-25.54109" data-paper-data="{&quot;index&quot;:null}" fill="none" stroke="#ffffff" stroke-width="5" stroke-linecap="butt"/><path d="M358.32992,296.97836v-23.8646" data-paper-data="{&quot;index&quot;:null}" fill="none" stroke="#ffffff" stroke-width="5" stroke-linecap="round"/><g data-paper-data="{&quot;index&quot;:null}"><path d="M-232.78114,327.02112v-81.2665h542.61241l-0.88387,85.68587z" fill="#965700" stroke="none" stroke-width="0" stroke-linecap="butt"/><path d="M-214.95367,228.24357h524l-533,1" fill="none" stroke="#4eff00" stroke-width="37.5" stroke-linecap="round"/><g fill="none" stroke="#40d600" stroke-width="12.5" stroke-linecap="round"><g><g><path d="M303.28909,240.27598v-30.13252v31.04563"/><path d="M268.59103,240.27598v-30.13252v31.04563"/></g><g><path d="M232.97986,241.18909v-31.04563v30.13252"/><path d="M198.2818,241.18909v-31.04563v30.13252"/></g></g><g><g><path d="M159.01821,240.27598v-30.13252v31.04563"/><path d="M124.32015,240.27598v-30.13252v31.04563"/></g><g><path d="M88.70899,241.18909v-31.04563v30.13252"/><path d="M54.01093,240.27598v-30.13252v31.04563"/></g></g></g><g fill="none" stroke="#40d600" stroke-width="12.5" stroke-linecap="round"><g><path d="M18.39977,240.27597v-31.04563v30.13252"/><path d="M-16.29829,239.36287v-30.13252v31.04563"/></g><g><path d="M-51.90946,240.27597v-31.04563v30.13252"/><path d="M-86.60752,240.27597v-31.04563v30.13252"/></g></g><path d="M301.67209,257.93857l-562.52891,-2" fill="none" stroke="#864e00" stroke-width="17.5" stroke-linecap="round"/><g fill="none" stroke="#40d600" stroke-width="12.5" stroke-linecap="round"><g><path d="M-125.87111,240.27597v-31.04563v30.13252"/><path d="M-160.56917,240.27597v-31.04563v30.13252"/></g><g><path d="M-196.18033,240.27598v-31.04563v30.13252"/><path d="M-230.87839,239.36286v-30.13252v31.04563"/></g></g><path d="M-261.74069,250.63532l562.52891,2" fill="none" stroke="#39bf00" stroke-width="17.5" stroke-linecap="round"/><path d="M309.2566,237.03684c-28.48415,0 -48.47957,-12.46507 -52.1291,-27.43738" data-paper-data="{&quot;index&quot;:null}" fill="none" stroke="#ffffff" stroke-width="5" stroke-linecap="butt"/><path d="M-64.15409,206.06397c-3.64953,14.97231 -27.18045,27.43738 -55.6646,27.43738c-1.04684,0 -2.08699,-0.0156 -3.1197,-0.04641" data-paper-data="{&quot;index&quot;:null}" fill="none" stroke="#ffffff" stroke-width="5" stroke-linecap="butt"/><path d="M155.75596,209.75084c-1.92117,14.26942 -25.25148,25.54109 -53.74956,25.54109c-28.49809,0 -51.8284,-11.27166 -53.74956,-25.54109" fill="none" stroke="#ffffff" stroke-width="5" stroke-linecap="butt"/><path d="M104.65803,211.24257v23.8646" fill="none" stroke="#ffffff" stroke-width="5" stroke-linecap="round"/></g></g></g></svg>