<svg version="1.1" xmlns="http://www.w3.org/2000/svg" xmlns:xlink="http://www.w3.org/1999/xlink" width="582.24729" height="125.96857" viewBox="0,0,582.24729,125.96857"><g transform="translate(236.0196,-257.6205)"><g data-paper-data="{&quot;isPaintingLayer&quot;:true}" fill-rule="nonzero" stroke-linejoin="miter" stroke-miterlimit="10" stroke-dasharray="" stroke-dashoffset="0" style="mix-blend-mode: normal"><path d="M-198.31005,379.1697v-81.2665h542.61241l-0.88387,85.68587z" fill="#965700" stroke="none" stroke-width="0" stroke-linecap="butt"/><path d="M-180.48258,280.39215h524l-533,1" fill="none" stroke="#4eff00" stroke-width="37.5" stroke-linecap="round"/><g fill="none" stroke="#40d600" stroke-width="12.5" stroke-linecap="round"><g><g><path d="M337.76018,292.42456v-30.13252v31.04563"/><path d="M303.06212,292.42456v-30.13252v31.04563"/></g><g><path d="M267.45095,292.42456v-30.13252v31.04563"/><path d="M232.75289,292.42456v-30.13252v31.04563"/></g></g><g><g><path d="M193.4893,293.33767v-31.04563v30.13252"/><path d="M158.79124,293.33767v-31.04563v30.13252"/></g><g><path d="M123.18008,292.42456v-30.13252v31.04563"/><path d="M88.48202,292.42456v-30.13252v31.04563"/></g></g></g><g fill="none" stroke="#40d600" stroke-width="12.5" stroke-linecap="round"><g><path d="M52.87086,292.42455v-31.04563v30.13252"/><path d="M18.1728,292.42456v-31.04563v30.13252"/></g><g><path d="M-17.43837,292.42455v-31.04563v30.13252"/><path d="M-52.13643,291.51144v-30.13252v31.04563"/></g></g><path d="M336.14318,310.08715l-562.52891,-2" fill="none" stroke="#864e00" stroke-width="17.5" stroke-linecap="round"/><g fill="none" stroke="#40d600" stroke-width="12.5" stroke-linecap="round"><g><path d="M-91.40002,291.51144v-30.13252v31.04563"/><path d="M-126.09808,291.51144v-30.13252v31.04563"/></g><g><path d="M-161.70924,291.51145v-30.13252v31.04563"/><path d="M-196.4073,292.42455v-31.04563v30.13252"/></g></g><path d="M335.25931,304.7839l-562.52891,-2" fill="none" stroke="#39bf00" stroke-width="17.5" stroke-linecap="round"/><path d="M343.72769,289.18542c-28.48415,0 -48.47957,-12.46507 -52.1291,-27.43738" data-paper-data="{&quot;index&quot;:null}" fill="none" stroke="#ffffff" stroke-width="5" stroke-linecap="butt"/><path d="M-29.683,258.21255c-3.64953,14.97231 -27.18045,27.43738 -55.6646,27.43738c-1.04684,0 -2.08699,-0.0156 -3.1197,-0.04641" data-paper-data="{&quot;index&quot;:null}" fill="none" stroke="#ffffff" stroke-width="5" stroke-linecap="butt"/><path d="M190.22705,261.89942c-1.92117,14.26942 -25.25148,25.54109 -53.74956,25.54109c-28.49809,0 -51.8284,-11.27166 -53.74956,-25.54109" fill="none" stroke="#ffffff" stroke-width="5" stroke-linecap="butt"/><path d="M139.12912,263.39115v23.8646" fill="none" stroke="#ffffff" stroke-width="5" stroke-linecap="round"/></g></g></svg>