<svg version="1.1" xmlns="http://www.w3.org/2000/svg" xmlns:xlink="http://www.w3.org/1999/xlink" width="1393.86857" height="126.85244" viewBox="0,0,1393.86857,126.85244"><g transform="translate(468.94962,-255.85277)"><g data-paper-data="{&quot;isPaintingLayer&quot;:true}" fill-rule="nonzero" stroke-linejoin="miter" stroke-miterlimit="10" stroke-dasharray="" stroke-dashoffset="0" style="mix-blend-mode: normal"><g><path d="M345.48086,381.82133l-0.88387,-85.68587h542.61241v81.2665z" fill="#965700" stroke="none" stroke-width="0" stroke-linecap="butt"/><path d="M878.38193,279.62441l-533,-1h524" fill="none" stroke="#4eff00" stroke-width="37.5" stroke-linecap="round"/><g fill="none" stroke="#40d600" stroke-width="12.5" stroke-linecap="round"><g><g><path d="M351.13917,299.5248v-39.0005v30.13252"/><path d="M385.83723,291.56993v-31.04563v30.13252"/></g><g><path d="M421.4484,290.65682v-30.13252v31.04563"/><path d="M456.14646,291.56993v-31.04563v30.13252"/></g></g><g><g><path d="M495.41005,291.56993v-31.04563v30.13252"/><path d="M530.10811,290.65682v-30.13252v31.04563"/></g><g><path d="M565.71927,291.56993v-31.04563v30.13252"/><path d="M600.41733,291.56993v-31.04563v30.13252"/></g></g></g><g fill="none" stroke="#40d600" stroke-width="12.5" stroke-linecap="round"><g><path d="M636.02849,289.7437v-30.13252v31.04563"/><path d="M670.72655,290.65682v-31.04563v30.13252"/></g><g><path d="M706.33772,289.7437v-30.13252v31.04563"/><path d="M741.03578,289.7437v-30.13252v31.04563"/></g></g><path d="M352.75617,308.31941l562.52891,-2" fill="none" stroke="#864e00" stroke-width="17.5" stroke-linecap="round"/><g fill="none" stroke="#40d600" stroke-width="12.5" stroke-linecap="round"><g><path d="M780.29937,290.65681v-31.04563v30.13252"/><path d="M814.99743,290.65681v-31.04563v30.13252"/></g><g><path d="M850.60859,290.65682v-31.04563v30.13252"/><path d="M885.30665,289.7437v-30.13252v31.04563"/></g></g><path d="M916.16895,301.01616l-562.52891,2" fill="none" stroke="#39bf00" stroke-width="17.5" stroke-linecap="round"/><path d="M397.30076,259.9803c-3.64953,14.97231 -23.64495,27.43738 -52.1291,27.43738" data-paper-data="{&quot;index&quot;:null}" fill="none" stroke="#ffffff" stroke-width="5" stroke-linecap="butt"/><path d="M777.36665,283.83578c-1.03271,0.03081 -2.07286,0.04641 -3.1197,0.04641c-28.48415,0 -52.01507,-12.46507 -55.6646,-27.43738" data-paper-data="{&quot;index&quot;:null}" fill="none" stroke="#ffffff" stroke-width="5" stroke-linecap="butt"/><path d="M606.17142,260.13168c-1.92116,14.26943 -25.25147,25.54109 -53.74956,25.54109c-28.49808,0 -51.82839,-11.27167 -53.74956,-25.54109" fill="none" stroke="#ffffff" stroke-width="5" stroke-linecap="butt"/><path d="M549.77023,285.48801v-23.8646" fill="none" stroke="#ffffff" stroke-width="5" stroke-linecap="round"/></g><g data-paper-data="{&quot;index&quot;:null}"><path d="M-432.12394,378.28583v-81.2665h542.61241l-0.88387,85.68587z" fill="#965700" stroke="none" stroke-width="0" stroke-linecap="butt"/><path d="M-414.29647,279.50828h524l-533,1" fill="none" stroke="#4eff00" stroke-width="37.5" stroke-linecap="round"/><g fill="none" stroke="#40d600" stroke-width="12.5" stroke-linecap="round"><g><g><path d="M104.83016,301.26331l-0.88387,-39.85514v31.04563"/><path d="M69.24823,291.54069v-30.13252v31.04563"/></g><g><path d="M33.63706,291.54069v-30.13252v31.04563"/><path d="M-1.061,291.54069v-30.13252v31.04563"/></g></g><g><g><path d="M-40.32459,291.54069v-30.13252v31.04563"/><path d="M-75.02265,292.4538v-31.04563v30.13252"/></g><g><path d="M-110.63381,291.54069v-30.13252v31.04563"/><path d="M-145.33187,291.54069v-30.13252v31.04563"/></g></g></g><g fill="none" stroke="#40d600" stroke-width="12.5" stroke-linecap="round"><g><path d="M-180.94303,291.54068v-31.04563v30.13252"/><path d="M-215.64109,291.54069v-31.04563v30.13252"/></g><g><path d="M-251.25226,291.54068v-31.04563v30.13252"/><path d="M-285.95032,291.54068v-31.04563v30.13252"/></g></g><path d="M-460.19962,307.20328l562.52891,2" fill="none" stroke="#864e00" stroke-width="17.5" stroke-linecap="round"/><g fill="none" stroke="#40d600" stroke-width="12.5" stroke-linecap="round"><g><path d="M-325.21391,290.62757v-30.13252v31.04563"/><path d="M-359.91197,291.54068v-31.04563v30.13252"/></g><g><path d="M-395.52313,290.62758v-30.13252v31.04563"/><path d="M-430.22119,290.62757v-30.13252v31.04563"/></g></g><path d="M102.32929,303.90003l-562.52891,-2" fill="none" stroke="#39bf00" stroke-width="17.5" stroke-linecap="round"/><path d="M109.9138,288.30155c-28.48415,0 -48.47957,-12.46507 -52.1291,-27.43738" data-paper-data="{&quot;index&quot;:null}" fill="none" stroke="#ffffff" stroke-width="5" stroke-linecap="butt"/><path d="M-263.49689,257.32868c-3.64953,14.97231 -27.18045,27.43738 -55.6646,27.43738c-1.04684,0 -2.08699,-0.0156 -3.1197,-0.04641" data-paper-data="{&quot;index&quot;:null}" fill="none" stroke="#ffffff" stroke-width="5" stroke-linecap="butt"/><path d="M-43.58684,261.01555c-1.92117,14.26942 -25.25148,25.54109 -53.74956,25.54109c-28.49809,0 -51.8284,-11.27166 -53.74956,-25.54109" fill="none" stroke="#ffffff" stroke-width="5" stroke-linecap="butt"/><path d="M-94.68477,286.37188v-23.8646" fill="none" stroke="#ffffff" stroke-width="5" stroke-linecap="round"/></g></g></g></svg>