<svg version="1.1" xmlns="http://www.w3.org/2000/svg" xmlns:xlink="http://www.w3.org/1999/xlink" width="879.95531" height="183.42039" viewBox="0,0,879.95531,183.42039"><g transform="translate(21.32692,-194.86543)"><g data-paper-data="{&quot;isPaintingLayer&quot;:true}" fill-rule="nonzero" stroke-linejoin="miter" stroke-miterlimit="10" stroke-dasharray="" stroke-dashoffset="0" style="mix-blend-mode: normal"><path d="M-21.32692,378.28582v-81.2665h577.0835v81.2665z" data-paper-data="{&quot;index&quot;:null}" fill="#965700" stroke="none" stroke-width="0" stroke-linecap="butt"/><path d="M526.60001,280.50827l-533,-1h524" data-paper-data="{&quot;index&quot;:null}" fill="none" stroke="#4eff00" stroke-width="37.5" stroke-linecap="round"/><g data-paper-data="{&quot;index&quot;:null}" fill="none" stroke="#40d600" stroke-width="12.5" stroke-linecap="round"><g><g><path d="M31.17672,292.45379v-31.04563v30.13252"/><path d="M65.87478,292.45379v-31.04563v30.13252"/></g><g><path d="M101.48595,291.54068v-30.13252v31.04563"/><path d="M136.18401,291.54068v-30.13252v31.04563"/></g></g><g><g><path d="M175.4476,292.45379v-31.04563v30.13252"/><path d="M210.14566,292.45379v-31.04563v30.13252"/></g><g><path d="M245.75682,292.45379v-31.04563v30.13252"/><path d="M280.45488,292.45379v-31.04563v30.13252"/></g></g></g><g data-paper-data="{&quot;index&quot;:null}" fill="none" stroke="#40d600" stroke-width="12.5" stroke-linecap="round"><g><path d="M316.06604,291.54067v-31.04563v30.13252"/><path d="M350.7641,291.54068v-31.04563v30.13252"/></g><g><path d="M386.37527,291.54067v-31.04563v30.13252"/><path d="M421.07333,291.54067v-31.04563v30.13252"/></g></g><path d="M-12.28386,309.20327l597,-2" data-paper-data="{&quot;index&quot;:null}" fill="none" stroke="#864e00" stroke-width="17.5" stroke-linecap="round"/><g data-paper-data="{&quot;index&quot;:null}" fill="none" stroke="#40d600" stroke-width="12.5" stroke-linecap="round"><g><path d="M460.33692,291.54067v-31.04563v30.13252"/><path d="M495.03498,291.54067v-31.04563v30.13252"/></g><g><path d="M530.64614,291.54068v-31.04563v30.13252"/><path d="M565.3442,291.54067v-31.04563v30.13252"/></g></g><path d="M-12.28386,303.90002l597,-2" data-paper-data="{&quot;index&quot;:null}" fill="none" stroke="#39bf00" stroke-width="17.5" stroke-linecap="round"/><path d="M77.33831,260.86416c-3.64953,14.97231 -27.18045,27.43738 -55.6646,27.43738c-1.04684,0 -2.08699,-0.0156 -3.1197,-0.04641" data-paper-data="{&quot;index&quot;:null}" fill="none" stroke="#ffffff" stroke-width="5" stroke-linecap="butt"/><path d="M457.4042,284.71964c-1.03271,0.03081 -2.07286,0.04641 -3.1197,0.04641c-28.48415,0 -52.01507,-12.46507 -55.6646,-27.43738" data-paper-data="{&quot;index&quot;:null}" fill="none" stroke="#ffffff" stroke-width="5" stroke-linecap="butt"/><path d="M286.20897,261.01554c-1.92116,14.26943 -25.25147,25.54109 -53.74956,25.54109c-28.49808,0 -51.82839,-11.27167 -53.74956,-25.54109" data-paper-data="{&quot;index&quot;:null}" fill="none" stroke="#ffffff" stroke-width="5" stroke-linecap="butt"/><path d="M229.80778,286.37187v-23.8646" data-paper-data="{&quot;index&quot;:null}" fill="none" stroke="#ffffff" stroke-width="5" stroke-linecap="round"/><g data-paper-data="{&quot;index&quot;:null}"><path d="M279.1903,320.834l-0.88387,-85.68587h542.61241v81.2665z" fill="#965700" stroke="none" stroke-width="0" stroke-linecap="butt"/><path d="M812.09137,218.63708l-533,-1h524" fill="none" stroke="#4eff00" stroke-width="37.5" stroke-linecap="round"/><g fill="none" stroke="#40d600" stroke-width="12.5" stroke-linecap="round"><g><g><path d="M284.84861,230.5826v-31.04563v30.13252"/><path d="M319.54667,230.5826v-31.04563v30.13252"/></g><g><path d="M355.15784,229.66949v-30.13252v31.04563"/><path d="M389.8559,230.5826v-31.04563v30.13252"/></g></g><g><g><path d="M429.11949,229.66949v-30.13252v31.04563"/><path d="M463.81755,229.66949v-30.13252v31.04563"/></g><g><path d="M499.42871,229.66949v-30.13252v31.04563"/><path d="M534.12677,230.5826v-31.04563v30.13252"/></g></g></g><g fill="none" stroke="#40d600" stroke-width="12.5" stroke-linecap="round"><g><path d="M569.73793,228.75637v-30.13252v31.04563"/><path d="M604.43599,229.66949v-31.04563v30.13252"/></g><g><path d="M640.04716,229.66948v-31.04563v30.13252"/><path d="M674.74522,229.66948v-31.04563v30.13252"/></g></g><path d="M286.46561,247.33208l562.52891,-2" fill="none" stroke="#864e00" stroke-width="17.5" stroke-linecap="round"/><g fill="none" stroke="#40d600" stroke-width="12.5" stroke-linecap="round"><g><path d="M714.00881,228.75637v-30.13252v31.04563"/><path d="M748.70687,229.66948v-31.04563v30.13252"/></g><g><path d="M784.31803,228.75638v-30.13252v31.04563"/><path d="M819.01609,229.66948v-31.04563v30.13252"/></g></g><path d="M287.34948,242.02883l562.52891,-2" fill="none" stroke="#39bf00" stroke-width="17.5" stroke-linecap="round"/><path d="M331.0102,198.99297c-3.64953,14.97231 -23.64495,27.43738 -52.1291,27.43738" data-paper-data="{&quot;index&quot;:null}" fill="none" stroke="#ffffff" stroke-width="5" stroke-linecap="butt"/><path d="M711.07609,222.84845c-1.03271,0.03081 -2.07286,0.04641 -3.1197,0.04641c-28.48415,0 -52.01507,-12.46507 -55.6646,-27.43738" data-paper-data="{&quot;index&quot;:null}" fill="none" stroke="#ffffff" stroke-width="5" stroke-linecap="butt"/><path d="M539.88086,199.14435c-1.92116,14.26943 -25.25147,25.54109 -53.74956,25.54109c-28.49808,0 -51.82839,-11.27167 -53.74956,-25.54109" fill="none" stroke="#ffffff" stroke-width="5" stroke-linecap="butt"/><path d="M483.47967,224.50068v-23.8646" fill="none" stroke="#ffffff" stroke-width="5" stroke-linecap="round"/></g></g></g></svg>