<svg version="1.1" xmlns="http://www.w3.org/2000/svg" xmlns:xlink="http://www.w3.org/1999/xlink" width="616.56081" height="391.79177" viewBox="0,0,616.56081,391.79177"><g transform="translate(21.32692,13.50596)"><g data-paper-data="{&quot;isPaintingLayer&quot;:true}" fill-rule="nonzero" stroke-linejoin="miter" stroke-miterlimit="10" stroke-dasharray="" stroke-dashoffset="0" style="mix-blend-mode: normal"><path d="M-21.32692,378.28581v-81.2665h577.0835v81.2665z" fill="#965700" stroke="none" stroke-width="0" stroke-linecap="butt"/><path d="M526.60001,280.50826l-533,-1h524" fill="none" stroke="#4eff00" stroke-width="37.5" stroke-linecap="round"/><g fill="none" stroke="#40d600" stroke-width="12.5" stroke-linecap="round"><g><g><path d="M31.17672,291.54067v-30.13252v31.04563"/><path d="M65.87478,291.54067v-30.13252v31.04563"/></g><g><path d="M101.48595,291.54067v-30.13252v31.04563"/><path d="M136.18401,292.45378v-31.04563v30.13252"/></g></g><g><g><path d="M175.4476,292.45378v-31.04563v30.13252"/><path d="M210.14566,291.54067v-30.13252v31.04563"/></g><g><path d="M245.75682,292.45378v-31.04563v30.13252"/><path d="M280.45488,292.45378v-31.04563v30.13252"/></g></g></g><g fill="none" stroke="#40d600" stroke-width="12.5" stroke-linecap="round"><g><path d="M316.06604,291.54066v-31.04563v30.13252"/><path d="M350.7641,291.54067v-31.04563v30.13252"/></g><g><path d="M386.37527,290.62755v-30.13252v31.04563"/><path d="M421.07333,291.54066v-31.04563v30.13252"/></g></g><path d="M584.71614,307.20326l-597,2" fill="none" stroke="#864e00" stroke-width="17.5" stroke-linecap="round"/><g fill="none" stroke="#40d600" stroke-width="12.5" stroke-linecap="round"><g><path d="M460.33692,290.62755v-30.13252v31.04563"/><path d="M495.03498,291.54066v-31.04563v30.13252"/></g><g><path d="M530.64614,290.62756v-30.13252v31.04563"/><path d="M565.3442,291.54066v-31.04563v30.13252"/></g></g><path d="M-12.28386,303.90001l597,-2" fill="none" stroke="#39bf00" stroke-width="17.5" stroke-linecap="round"/><path d="M77.33831,260.86415c-3.64953,14.97231 -27.18045,27.43738 -55.6646,27.43738c-1.04684,0 -2.08699,-0.0156 -3.1197,-0.04641" data-paper-data="{&quot;index&quot;:null}" fill="none" stroke="#ffffff" stroke-width="5" stroke-linecap="butt"/><path d="M457.4042,289.139c-1.03271,0.03081 -2.07286,0.04641 -3.1197,0.04641c-28.48415,0 -52.01507,-12.46507 -55.6646,-27.43738" data-paper-data="{&quot;index&quot;:null}" fill="none" stroke="#ffffff" stroke-width="5" stroke-linecap="butt"/><path d="M286.20897,261.01553c-1.92116,14.26943 -25.25147,25.54109 -53.74956,25.54109c-28.49808,0 -51.82839,-11.27167 -53.74956,-25.54109" fill="none" stroke="#ffffff" stroke-width="5" stroke-linecap="butt"/><path d="M229.80778,286.37186v-23.8646" fill="none" stroke="#ffffff" stroke-width="5" stroke-linecap="round"/><path d="M557.52433,-13.50596v81.2665h-577.0835v-81.2665z" data-paper-data="{&quot;index&quot;:null}" fill="#965700" stroke="none" stroke-width="0" stroke-linecap="butt"/><path d="M519.36776,85.27159h-524l533,-1" data-paper-data="{&quot;index&quot;:null}" fill="none" stroke="#4eff00" stroke-width="37.5" stroke-linecap="round"/><g data-paper-data="{&quot;index&quot;:null}" fill="none" stroke="#40d600" stroke-width="12.5" stroke-linecap="round"><g><g><path d="M32.94447,73.23918v30.13252v-31.04563"/><path d="M67.64253,72.32607v31.04563v-30.13252"/></g><g><path d="M103.2537,72.32607v31.04563v-30.13252"/><path d="M137.95176,72.32607v31.04563v-30.13252"/></g></g><g><g><path d="M177.21535,72.32607v31.04563v-30.13252"/><path d="M211.91341,72.32607v31.04563v-30.13252"/></g><g><path d="M247.52457,73.23918v30.13252v-31.04563"/><path d="M282.22263,72.32607v31.04563v-30.13252"/></g></g></g><g data-paper-data="{&quot;index&quot;:null}" fill="none" stroke="#40d600" stroke-width="12.5" stroke-linecap="round"><g><path d="M317.83379,73.23919v31.04563v-30.13252"/><path d="M352.53185,73.23918v31.04563v-30.13252"/></g><g><path d="M388.14302,74.1523v30.13252v-31.04563"/><path d="M422.84108,74.1523v30.13252v-31.04563"/></g></g><path d="M586.48389,57.57659l-597,-2" data-paper-data="{&quot;index&quot;:null}" fill="none" stroke="#864e00" stroke-width="17.5" stroke-linecap="round"/><g data-paper-data="{&quot;index&quot;:null}" fill="none" stroke="#40d600" stroke-width="12.5" stroke-linecap="round"><g><path d="M462.10467,74.1523v30.13252v-31.04563"/><path d="M496.80273,74.1523v30.13252v-31.04563"/></g><g><path d="M532.41389,73.23918v31.04563v-30.13252"/><path d="M567.11195,74.1523v30.13252v-31.04563"/></g></g><path d="M-10.51611,60.87984l597,2" data-paper-data="{&quot;index&quot;:null}" fill="none" stroke="#39bf00" stroke-width="17.5" stroke-linecap="round"/><path d="M20.32176,76.52473c1.03271,-0.03081 2.07286,-0.04641 3.1197,-0.04641c28.48415,0 52.01507,12.46507 55.6646,27.43738" data-paper-data="{&quot;index&quot;:null}" fill="none" stroke="#ffffff" stroke-width="5" stroke-linecap="butt"/><path d="M400.38765,103.03182c3.64953,-14.97231 27.18045,-27.43738 55.6646,-27.43738c1.04684,0 2.08699,0.0156 3.1197,0.04641" data-paper-data="{&quot;index&quot;:null}" fill="none" stroke="#ffffff" stroke-width="5" stroke-linecap="butt"/><path d="M180.4776,103.76432c1.92117,-14.26942 25.25148,-25.54109 53.74956,-25.54109c28.49809,0 51.8284,11.27166 53.74956,25.54109" data-paper-data="{&quot;index&quot;:null}" fill="none" stroke="#ffffff" stroke-width="5" stroke-linecap="butt"/><path d="M231.57553,102.27259v-23.8646" data-paper-data="{&quot;index&quot;:null}" fill="none" stroke="#ffffff" stroke-width="5" stroke-linecap="round"/></g></g></svg>