<svg version="1.1" xmlns="http://www.w3.org/2000/svg" xmlns:xlink="http://www.w3.org/1999/xlink" width="614.79306" height="614.87845" viewBox="0,0,614.79306,614.87845"><g transform="translate(21.32692,166.26952)"><g data-paper-data="{&quot;isPaintingLayer&quot;:true}" fill-rule="nonzero" stroke-linejoin="miter" stroke-miterlimit="10" stroke-dasharray="" stroke-dashoffset="0" style="mix-blend-mode: normal"><path d="M413.89145,-98.98217l7.55992,532.94732l-8.41526,-523.93242" fill="none" stroke="#4eff00" stroke-width="37.5" stroke-linecap="round"/><g fill="none" stroke="#40d600" stroke-width="12.5" stroke-linecap="round"><g><g><path d="M433.79176,396.18538l-31.04163,0.49858l30.12863,-0.48392"/><path d="M433.23452,361.4918l-31.04163,0.49858l30.12863,-0.48392"/></g><g><path d="M431.74963,325.89989l-30.12863,0.48392l31.04163,-0.49858"/><path d="M431.19239,291.2063l-30.12863,0.48392l31.04163,-0.49858"/></g></g><g><g><path d="M431.47482,251.93311l-31.04163,0.49858l30.12863,-0.48392"/><path d="M430.00459,217.25419l-30.12863,0.48392l31.04163,-0.49858"/></g><g><path d="M430.34568,181.63296l-31.04163,0.49858l30.12863,-0.48392"/><path d="M429.78844,146.93937l-31.04163,0.49858l30.12863,-0.48392"/></g></g></g><g fill="none" stroke="#40d600" stroke-width="12.5" stroke-linecap="round"><g><path d="M427.39054,111.36213l-30.12863,0.48392l31.04163,-0.49858"/><path d="M427.74631,76.65388l-31.04163,0.49858l30.12863,-0.48392"/></g><g><path d="M426.2614,41.06197l-30.12863,0.48392l31.04163,-0.49858"/><path d="M425.70416,6.36839l-30.12863,0.48392l31.04163,-0.49858"/></g></g><g fill="none" stroke="#40d600" stroke-width="12.5" stroke-linecap="round"><g><path d="M425.0736,-32.89014l-30.12863,0.48392l31.04163,-0.49858"/><path d="M424.51636,-67.58373l-30.12863,0.48392l31.04163,-0.49858"/></g><g><path d="M424.85746,-103.20496l-31.04163,0.49858l30.12863,-0.48392"/><path d="M423.38722,-137.88388l-30.12863,0.48392l31.04163,-0.49858"/></g></g><path d="M401.46486,350.53707c15.02899,3.40861 27.87035,26.73631 28.3278,55.21679c0.01681,1.0467 0.01792,2.08697 0.0037,3.12004" data-paper-data="{&quot;index&quot;:null}" fill="none" stroke="#ffffff" stroke-width="5" stroke-linecap="butt"/><path d="M423.63234,-29.93389c0.04739,1.03208 0.07969,2.07185 0.09651,3.11855c0.45745,28.48048 -11.62812,52.20855 -26.53989,56.09806" data-paper-data="{&quot;index&quot;:null}" fill="none" stroke="#ffffff" stroke-width="5" stroke-linecap="butt"/><path d="M398.26183,141.69091c14.29844,1.69175 25.94333,24.83803 26.401,53.33245c0.45767,28.4944 -10.43787,52.00273 -24.6746,54.15281" fill="none" stroke="#ffffff" stroke-width="5" stroke-linecap="butt"/><path d="M424.52068,197.67761l-23.86152,0.38326" fill="none" stroke="#ffffff" stroke-width="5" stroke-linecap="round"/><path d="M526.60001,280.50826l-533,-1h524" fill="none" stroke="#4eff00" stroke-width="37.5" stroke-linecap="round"/><g fill="none" stroke="#40d600" stroke-width="12.5" stroke-linecap="round"><g><g><path d="M31.17672,292.45378v-31.04563v30.13252"/><path d="M65.87478,292.45378v-31.04563v30.13252"/></g><g><path d="M101.48595,291.54067v-30.13252v31.04563"/><path d="M136.18401,291.54067v-30.13252v31.04563"/></g></g><g><g><path d="M175.4476,292.45378v-31.04563v30.13252"/><path d="M210.14566,291.54067v-30.13252v31.04563"/></g><g><path d="M245.75682,292.45378v-31.04563v30.13252"/><path d="M280.45488,292.45378v-31.04563v30.13252"/></g></g></g><path d="M442.39898,439.45654l-11.58735,-596.89089" fill="none" stroke="#39bf00" stroke-width="17.5" stroke-linecap="round"/><g fill="none" stroke="#40d600" stroke-width="12.5" stroke-linecap="round"><g><path d="M316.06604,290.62755v-30.13252v31.04563"/><path d="M350.7641,291.54067v-31.04563v30.13252"/></g><g><path d="M386.37527,290.62755v-30.13252v31.04563"/></g></g><path d="M584.71614,307.20326l-597,2" fill="none" stroke="#864e00" stroke-width="17.5" stroke-linecap="round"/><g fill="none" stroke="#40d600" stroke-width="12.5" stroke-linecap="round"><g><path d="M460.33692,290.62755v-30.13252v31.04563"/><path d="M495.03498,290.62755v-30.13252v31.04563"/></g><g><path d="M530.64614,291.54067v-31.04563v30.13252"/><path d="M565.3442,290.62755v-30.13252v31.04563"/></g></g><path d="M-12.28386,303.90001l597,-2" fill="none" stroke="#39bf00" stroke-width="17.5" stroke-linecap="round"/><path d="M77.33831,260.86415c-3.64953,14.97231 -27.18045,27.43738 -55.6646,27.43738c-1.04684,0 -2.08699,-0.0156 -3.1197,-0.04641" data-paper-data="{&quot;index&quot;:null}" fill="none" stroke="#ffffff" stroke-width="5" stroke-linecap="butt"/><path d="M286.20897,261.01553c-1.92116,14.26943 -25.25147,25.54109 -53.74956,25.54109c-28.49808,0 -51.82839,-11.27167 -53.74956,-25.54109" fill="none" stroke="#ffffff" stroke-width="5" stroke-linecap="butt"/><path d="M229.80778,286.37186v-23.8646" fill="none" stroke="#ffffff" stroke-width="5" stroke-linecap="round"/><path d="M439.64969,-157.51952l11.58735,596.89089" fill="none" stroke="#864e00" stroke-width="17.5" stroke-linecap="round"/><path d="M530.17853,447.30382l-81.25602,1.30511l-9.26776,-577.00908l81.25602,-1.30511z" fill="#965700" stroke="none" stroke-width="0" stroke-linecap="butt"/><path d="M-21.32692,397.73104v-81.2665h577.0835v81.2665z" fill="#965700" stroke="none" stroke-width="0" stroke-linecap="butt"/></g></g></svg>