<svg version="1.1" xmlns="http://www.w3.org/2000/svg" xmlns:xlink="http://www.w3.org/1999/xlink" width="614.79306" height="118.27855" viewBox="0,0,614.79306,118.27855"><g transform="translate(21.32692,-260.00725)"><g data-paper-data="{&quot;isPaintingLayer&quot;:true}" fill-rule="nonzero" stroke-linejoin="miter" stroke-miterlimit="10" stroke-dasharray="" stroke-dashoffset="0" style="mix-blend-mode: normal"><path d="M-21.32692,378.2858v-81.2665h577.0835v81.2665z" fill="#965700" stroke="none" stroke-width="0" stroke-linecap="butt"/><path d="M526.60001,280.50825l-533,-1h524" fill="none" stroke="#4eff00" stroke-width="37.5" stroke-linecap="round"/><g fill="none" stroke="#40d600" stroke-width="12.5" stroke-linecap="round"><g><g><path d="M31.17672,291.54066v-30.13252v31.04563"/><path d="M65.87478,292.45377v-31.04563v30.13252"/></g><g><path d="M101.48595,291.54066v-30.13252v31.04563"/><path d="M136.18401,291.54066v-30.13252v31.04563"/></g></g><g><g><path d="M175.4476,292.45377v-31.04563v30.13252"/><path d="M210.14566,291.54066v-30.13252v31.04563"/></g><g><path d="M245.75682,292.45377v-31.04563v30.13252"/><path d="M280.45488,292.45377v-31.04563v30.13252"/></g></g></g><g fill="none" stroke="#40d600" stroke-width="12.5" stroke-linecap="round"><g><path d="M316.06604,290.62755v-30.13252v31.04563"/><path d="M350.7641,291.54066v-31.04563v30.13252"/></g><g><path d="M386.37527,290.62755v-30.13252v31.04563"/><path d="M421.07333,290.62755v-30.13252v31.04563"/></g></g><path d="M584.71614,307.20325l-597,2" fill="none" stroke="#864e00" stroke-width="17.5" stroke-linecap="round"/><g fill="none" stroke="#40d600" stroke-width="12.5" stroke-linecap="round"><g><path d="M460.33692,290.62755v-30.13252v31.04563"/><path d="M495.03498,290.62755v-30.13252v31.04563"/></g><g><path d="M530.64614,291.54066v-31.04563v30.13252"/><path d="M565.3442,290.62755v-30.13252v31.04563"/></g></g><path d="M584.71614,301.9l-597,2" fill="none" stroke="#39bf00" stroke-width="17.5" stroke-linecap="round"/><path d="M77.33831,260.86414c-3.64953,14.97231 -27.18045,27.43738 -55.6646,27.43738c-1.04684,0 -2.08699,-0.0156 -3.1197,-0.04641" data-paper-data="{&quot;index&quot;:null}" fill="none" stroke="#ffffff" stroke-width="5" stroke-linecap="butt"/><path d="M457.4042,288.25512c-1.03271,0.03081 -2.07286,0.04641 -3.1197,0.04641c-28.48415,0 -52.01507,-12.46507 -55.6646,-27.43738" data-paper-data="{&quot;index&quot;:null}" fill="none" stroke="#ffffff" stroke-width="5" stroke-linecap="butt"/><path d="M286.20897,261.01552c-1.92116,14.26943 -25.25147,25.54109 -53.74956,25.54109c-28.49808,0 -51.82839,-11.27167 -53.74956,-25.54109" fill="none" stroke="#ffffff" stroke-width="5" stroke-linecap="butt"/><path d="M229.80778,286.37185v-23.8646" fill="none" stroke="#ffffff" stroke-width="5" stroke-linecap="round"/></g></g></svg>