<svg version="1.1" xmlns="http://www.w3.org/2000/svg" xmlns:xlink="http://www.w3.org/1999/xlink" width="39.50724" height="39.50724" viewBox="0,0,39.50724,39.50724"><g transform="translate(-220.24641,-160.24638)"><g data-paper-data="{&quot;isPaintingLayer&quot;:true}" stroke-linecap="butt" stroke-linejoin="miter" stroke-miterlimit="10" stroke-dasharray="" stroke-dashoffset="0" style="mix-blend-mode: normal"><g><path d="M222.54836,186.85194c-3.78421,-9.63829 0.96145,-20.51939 10.59975,-24.30361c9.63829,-3.78421 20.51939,0.96145 24.30361,10.59975c3.78421,9.63829 -0.96145,20.51939 -10.59975,24.30361c-9.63829,3.78421 -20.51939,-0.96145 -24.30361,-10.59975z" fill="#ffffff" fill-rule="nonzero" stroke="#000000" stroke-width="2"/><g fill-rule="evenodd" stroke="none" stroke-width="1"><path d="M239.22678,163.38091l-1.05509,4.24611l-5.39667,1.62768l-4.73664,-2.42151c0,0 1.62502,-1.86769 1.60843,-1.90994c0.73846,-0.81942 2.66729,-1.36076 3.72308,-1.71955c0.48545,-0.16273 3.26296,-1.24279 3.68537,-0.92443c0.3311,0.24623 2.17153,1.10165 2.17153,1.10165z" fill="#d7d7d7"/><path d="M258.28866,178.81471c-0.07814,5.75406 -1.70177,11.4217 -6.63495,14.89829c-0.12149,-0.07772 -5.83207,-3.92824 -5.83207,-3.92824c0.98838,-2.00092 1.3792,-3.65227 2.69608,-5.4582c1.67248,-2.29042 3.73897,-5.18142 5.39103,-7.4882z" fill="#ececec"/><path d="M239.20799,187.46622l1.4259,4.58529c0.31304,1.00227 0.84881,3.80165 0.84881,3.80165c0,0 -1.50967,1.80499 -2.08638,2.1185c-0.8961,0.49814 -3.13772,0.08239 -4.1365,-0.11766c-3.347,-0.66452 -6.0066,-2.72409 -8.42388,-5.00421l2.23524,-6.64976c0.09181,-0.22067 9.90449,1.21808 10.13682,1.2662z" fill="#d7d7d7"/><path d="M231.50496,168.50625l0.11808,7.61733c0,0 -2.97714,4.23436 -3.70419,5.21653c0,0 -5.30137,0.12371 -5.34088,0.07653c-0.07315,0.00085 -1.08732,-1.69105 -1.18221,-1.69213c-0.28026,-2.70115 0.53409,-5.62653 1.78909,-8.01778c0.61246,-1.16707 2.39022,-3.39432 3.30205,-4.35148c0.30469,-0.31122 2.62443,-0.5253 2.62443,-0.5253z" fill="#ececec"/><path d="M251.65304,193.72022c-1.61415,1.38464 -3.43882,2.50439 -5.4052,3.31705c-1.11192,0.43396 -2.26646,0.74948 -3.44432,0.94127c-0.91205,0.14559 -2.61914,0.46749 -3.49279,0.11381c0.17231,-1.32346 0.46692,-2.62857 0.88007,-3.89871c0.23706,-0.62604 1.57237,-4.61292 3.05389,-5.45586l4.6992,2.4153z" fill="#d7d7d7"/><path d="M253.01961,178.13845l-4.50373,6.19232c0,0 -7.90055,0.43706 -8.06882,0.00847c-0.02488,-0.06338 -3.84926,-9.00189 -3.87297,-9.06226c-0.21457,-0.30591 5.83577,-7.31793 5.98545,-7.59616c0.14969,-0.27823 8.51913,3.27731 8.67067,2.99488c0.12819,-0.23495 1.78939,7.46276 1.78939,7.46276z" fill="#d7d7d7"/><path d="M239.88637,183.00923c0,0 -0.9199,2.51397 -0.94399,2.80908c-0.01101,-0.13501 -3.05658,3.04284 -3.05658,3.04284c0,0 -4.96101,-0.41748 -7.90725,-1.77233l-2.37005,-6.03645c0.07094,-0.10449 4.65777,-6.48618 4.71962,-6.58711l4.1985,-0.7671l3.1479,3.82907z" fill="#dbdbdb"/><path d="M238.94004,185.81236c-0.00394,-0.00656 -0.00675,-0.01372 -0.00833,-0.02122z" fill="#f0e6d2"/><path d="M240.20058,194.18284c0,0 -3.68147,-4.30582 -4.34626,-5.3128c0.86811,-2.15574 4.01414,-5.88861 4.01414,-5.88861c2.83877,0.42166 5.87268,0.62736 8.64136,1.35173c0.20071,2.21334 -0.38822,4.60781 -0.57077,6.82532c-1.3495,0.96529 -6.73353,2.59846 -7.73847,3.02437z" fill="#000000"/><path d="M242.25757,161.99239l-0.02426,0.00952v0z" fill="#f0e6d2"/><path d="M252.33423,166.35814l-2.68734,4.66053c-2.39142,-0.20017 -8.16441,-0.97467 -8.16441,-0.97467l-3.96299,-1.03924l-0.48093,-2.47257c0,0 0.62121,-2.73112 1.05925,-3.39777c0.19265,-0.28466 1.43566,-1.23599 1.77787,-1.09515c0.338,-0.24418 1.97665,-0.08983 2.36266,-0.06024l-0.08186,0.03214c0.54511,-0.06423 7.63989,2.02709 9.77328,3.97627c0.0336,0.0321 0.35954,0.31865 0.40446,0.37069z" fill="#ececec"/><path d="M241.55309,170.13473c0,0 -3.49761,6.83884 -3.68409,7.18377c-0.04838,0.07183 -0.10443,0.13823 -0.16718,0.19801c-0.31167,-0.02742 -4.21795,-1.59056 -4.71248,-1.80745c-0.49453,-0.21688 -0.97363,-0.47467 -1.45155,-0.72943c-0.22453,-0.11737 -0.98158,-0.38795 -1.18712,-0.53716l1.17352,-5.92287c0.02125,-0.08847 5.52213,-1.97652 5.52213,-1.97652z" fill="#000000"/><path d="M258.28441,178.81288c-1.78077,0.03671 -3.55619,-0.19265 -5.2672,-0.68046c-0.19318,-0.41184 -3.64397,-7.06205 -3.70204,-7.20995c0.40662,-0.81803 2.41839,-4.35637 3.02207,-4.56552c3.011,3.02588 6.31083,7.97271 5.94717,12.45593z" fill="#000000"/><path d="M229.26202,187.59513l-2.33977,5.26953l-0.08461,-0.00161c-3.60273,-3.41013 -5.21066,-8.28971 -5.43849,-13.11199c0.82275,0.06364 4.51288,0.52377 4.66758,0.60585c0.06563,0.03346 3.15235,7.16451 3.19529,7.23822z" fill="#000000"/><path d="M229.67385,164.86734l-0.58074,1.96976c-0.35244,0.08264 -1.66902,0.40101 -2.02027,0.48666c-0.18531,0.04489 -0.37656,0.0747 -0.56543,0.11052l-0.02962,-0.07545c0.1205,-0.10304 0.23255,-0.20974 0.35424,-0.30977c0.30848,-0.25698 0.61579,-0.51696 0.92968,-0.7691c0.205,-0.16409 0.41895,-0.31428 0.62631,-0.47234c0.14342,-0.09793 0.27817,-0.20793 0.40274,-0.32881c0.27128,-0.23517 0.56739,-0.4402 0.8831,-0.61147z" fill="#000000"/><path d="M237.9244,163.43243c0,0 -0.57657,-0.77339 -0.87521,-1.1508c0.89426,-0.13316 1.79481,-0.21929 2.69788,-0.25804l0.02726,0.06942c-0.05182,0.05518 -1.84993,1.33942 -1.84993,1.33942z" fill="#000000"/></g></g></g></g></svg>