<svg version="1.1" xmlns="http://www.w3.org/2000/svg" xmlns:xlink="http://www.w3.org/1999/xlink" width="253.81681" height="91.65465" viewBox="0,0,253.81681,91.65465"><g transform="translate(-128.61562,-178.23123)"><g data-paper-data="{&quot;isPaintingLayer&quot;:true}" fill-rule="nonzero" stroke="none" stroke-width="1" stroke-linecap="butt" stroke-linejoin="miter" stroke-miterlimit="10" stroke-dasharray="" stroke-dashoffset="0" style="mix-blend-mode: normal"><g><path d="M182.921,178.23123l24.49929,82.48919h-24.49929h-16.33286h-24.50204l24.50204,-82.48919z" fill="#ecf0f1"/><path d="M211.10481,256.13769l9.16546,9.16546h-91.65465l9.16546,-9.16546z" fill="#f39c12"/><path d="M182.921,178.23123l4.08322,13.74819h-24.50067l4.08459,-13.74819zM192.48975,210.31037l5.49011,18.33094h-46.45058l5.48737,-18.33094zM146.17206,246.97223h57.16501l4.08322,13.74819h-24.49929h-16.33286h-24.50204l4.08367,-13.74819z" fill="#e67e22"/><path d="M174.75456,178.23123v82.48919h-8.16644h-24.50204l24.50204,-82.48919z" fill="#bdc3c7"/><path d="M174.75456,178.23123v13.74819h-12.25101l4.08459,-13.74819zM174.75456,210.31037v18.33094h-23.22529l5.48737,-18.33094zM174.75456,246.97223v13.74819h-8.16644h-24.50204l4.08367,-13.74819z" fill="#d35400"/><path d="M128.61562,269.88588v-4.58273h91.65465v4.58273z" fill="#e67e22"/></g><g><path d="M345.08316,178.23123l24.49929,82.48919h-24.49929h-16.33286h-24.50204l24.50204,-82.48919z" fill="#ecf0f1"/><path d="M373.26697,256.13769l9.16547,9.16546h-91.65465l9.16546,-9.16546z" fill="#f39c12"/><path d="M345.08316,178.23123l4.08322,13.74819h-24.50067l4.08459,-13.74819zM354.65191,210.31036l5.49011,18.33094h-46.45058l5.48737,-18.33094zM308.33422,246.97223h57.16501l4.08322,13.74819h-24.49929h-16.33286h-24.50204l4.08366,-13.74819z" fill="#e67e22"/><path d="M336.91673,178.23123v82.48919h-8.16644h-24.50204l24.50204,-82.48919z" fill="#bdc3c7"/><path d="M336.91673,178.23123v13.74819h-12.25102l4.08459,-13.74819zM336.91673,210.31036v18.33094h-23.22529l5.48737,-18.33094zM336.91673,246.97223v13.74819h-8.16644h-24.50204l4.08366,-13.74819z" fill="#d35400"/><path d="M290.77778,269.88589v-4.58273h91.65465v4.58273z" fill="#e67e22"/></g><g><path d="M182.921,178.23124l24.49929,82.48918h-24.49929h-16.33286h-24.50204l24.50204,-82.48918z" fill="#ecf0f1"/><path d="M211.10481,256.13769l9.16547,9.16546h-91.65465l9.16546,-9.16546z" fill="#f39c12"/><path d="M182.921,178.23124l4.08322,13.74819h-24.50067l4.08459,-13.74819zM192.48975,210.31037l5.49011,18.33094h-46.45058l5.48737,-18.33094zM146.17206,246.97223h57.16502l4.08322,13.74819h-24.49929h-16.33286h-24.50204l4.08367,-13.74819z" fill="#e67e22"/><path d="M174.75457,178.23124v82.48918h-8.16644h-24.50204l24.50204,-82.48918z" fill="#bdc3c7"/><path d="M174.75457,178.23124v13.74819h-12.25102l4.08459,-13.74819zM174.75457,210.31037v18.33094h-23.22529l5.48737,-18.33094zM174.75457,246.97223v13.74819h-8.16644h-24.50204l4.08366,-13.74819z" fill="#d35400"/><path d="M128.61562,269.88588v-4.58273h91.65465v4.58273z" fill="#e67e22"/></g></g></g></svg>