<svg version="1.1" xmlns="http://www.w3.org/2000/svg" xmlns:xlink="http://www.w3.org/1999/xlink" width="349.5976" height="175.09759" viewBox="0,0,349.5976,175.09759"><g transform="translate(-82.61562,-94.78829)"><g data-paper-data="{&quot;isPaintingLayer&quot;:true}" fill-rule="nonzero" stroke="none" stroke-width="1" stroke-linecap="butt" stroke-linejoin="miter" stroke-miterlimit="10" stroke-dasharray="" stroke-dashoffset="0" style="mix-blend-mode: normal"><path d="M103.1147,235.28829l9.24794,31.13784h-9.24794h-6.16529h-9.24898l9.24898,-31.13784z" fill="#ecf0f1"/><path d="M113.75346,264.69625l3.45976,3.45976h-34.5976l3.45976,-3.45976z" fill="#f39c12"/><path d="M103.1147,235.28829l1.54133,5.18964h-9.24846l1.54184,-5.18964zM106.72669,247.39745l2.07239,6.91952h-17.53406l2.07136,-6.91952zM89.24278,261.23649h21.57853l1.54133,5.18964h-9.24794h-6.16529h-9.24898l1.54149,-5.18964z" fill="#e67e22"/><path d="M100.03205,235.28829v31.13784h-3.08265h-9.24898l9.24898,-31.13784z" fill="#bdc3c7"/><path d="M100.03205,235.28829v5.18964h-4.62449l1.54184,-5.18964zM100.03205,247.39745v6.91952h-8.76703l2.07136,-6.91952zM100.03205,261.23649v5.18964h-3.08265h-9.24898l1.54149,-5.18964z" fill="#d35400"/><path d="M82.61562,269.88588v-1.72988h34.5976v1.72988z" fill="#e67e22"/><g><path d="M296.1147,235.28829l9.24794,31.13784h-9.24794h-6.16529h-9.24898l9.24898,-31.13784z" fill="#ecf0f1"/><path d="M306.75346,264.69625l3.45976,3.45976h-34.5976l3.45976,-3.45976z" fill="#f39c12"/><path d="M296.1147,235.28829l1.54133,5.18964h-9.24846l1.54184,-5.18964zM299.72669,247.39745l2.07239,6.91952h-17.53406l2.07136,-6.91952zM282.24278,261.23649h21.57853l1.54133,5.18964h-9.24794h-6.16529h-9.24898l1.54149,-5.18964z" fill="#e67e22"/><path d="M293.03205,235.28829v31.13784h-3.08265h-9.24898l9.24898,-31.13784z" fill="#bdc3c7"/><path d="M293.03205,235.28829v5.18964h-4.62449l1.54184,-5.18964zM293.03205,247.39745v6.91952h-8.76703l2.07136,-6.91952zM293.03205,261.23649v5.18964h-3.08265h-9.24898l1.54149,-5.18964z" fill="#d35400"/><path d="M275.61562,269.88588v-1.72988h34.5976v1.72988z" fill="#e67e22"/></g><g data-paper-data="{&quot;index&quot;:null}"><path d="M227.94941,130.88588l-9.24898,-31.13784h9.24898h6.16529h9.24794l-9.24794,31.13784z" fill="#ecf0f1"/><path d="M217.07538,101.47792l-3.45976,-3.45976h34.5976l-3.45976,3.45976z" fill="#f39c12"/><path d="M227.94941,130.88588l-1.54184,-5.18964h9.24846l-1.54133,5.18964zM224.33638,118.77672l-2.07136,-6.91952h17.53406l-2.07239,6.91952zM220.24192,104.93768l-1.54149,-5.18964h9.24898h6.16529h9.24794l-1.54133,5.18964h-21.57853z" fill="#e67e22"/><path d="M227.9494,130.88588l-9.24898,-31.13784h9.24898h3.08265v31.13784z" fill="#bdc3c7"/><path d="M227.9494,130.88588l-1.54184,-5.18964h4.62449v5.18964zM224.33638,118.77672l-2.07136,-6.91952h8.76703v6.91952zM220.24191,104.93768l-1.54149,-5.18964h9.24898h3.08265v5.18964z" fill="#d35400"/><path d="M248.21322,96.28829v1.72988h-34.5976v-1.72988z" fill="#e67e22"/></g><g data-paper-data="{&quot;index&quot;:null}"><path d="M411.94941,129.38588l-9.24898,-31.13784h9.24898h6.16529h9.24794l-9.24794,31.13784z" fill="#ecf0f1"/><path d="M401.07538,99.97792l-3.45976,-3.45976h34.5976l-3.45976,3.45976z" fill="#f39c12"/><path d="M411.94941,129.38588l-1.54184,-5.18964h9.24846l-1.54133,5.18964zM408.33638,117.27672l-2.07136,-6.91952h17.53406l-2.07239,6.91952zM404.24192,103.43768l-1.54149,-5.18964h9.24898h6.16529h9.24794l-1.54133,5.18964h-21.57853z" fill="#e67e22"/><path d="M411.9494,129.38588l-9.24898,-31.13784h9.24898h3.08265v31.13784z" fill="#bdc3c7"/><path d="M411.9494,129.38588l-1.54184,-5.18964h4.62449v5.18964zM408.33638,117.27672l-2.07136,-6.91952h8.76703v6.91952zM404.24191,103.43768l-1.54149,-5.18964h9.24898h3.08265v5.18964z" fill="#d35400"/><path d="M432.21322,94.78829v1.72988h-34.5976v-1.72988z" fill="#e67e22"/></g></g></g></svg>