<svg version="1.1" xmlns="http://www.w3.org/2000/svg" xmlns:xlink="http://www.w3.org/1999/xlink" width="196.75976" height="196.75976" viewBox="0,0,196.75976,196.75976"><g transform="translate(-157.02703,-85.55255)"><g data-paper-data="{&quot;isPaintingLayer&quot;:true}" fill-rule="nonzero" stroke="none" stroke-width="1" stroke-linecap="butt" stroke-linejoin="miter" stroke-miterlimit="10" stroke-dasharray="" stroke-dashoffset="0" style="mix-blend-mode: normal"><g><path d="M273.60719,85.55255l52.59388,177.08379h-52.59388h-35.0626h-52.59979l52.59979,-177.08379z" fill="#ecf0f1"/><path d="M334.11082,252.79836l19.67597,19.67597h-196.75976l19.67597,-19.67597z" fill="#f39c12"/><path d="M273.60719,85.55255l8.76566,29.51395h-52.59685l8.76859,-29.51395zM294.14891,154.41848l11.78589,39.35197h-99.71785l11.78002,-39.35197zM194.71634,233.12239h122.71907l8.76566,29.51395h-52.59388h-35.0626h-52.59979l8.76662,-29.51395z" fill="#e67e22"/><path d="M256.07588,85.55255v177.08379h-17.53131h-52.59979l52.59979,-177.08379z" fill="#bdc3c7"/><path d="M256.07588,85.55255v29.51395h-26.29988l8.76859,-29.51395zM256.07588,154.41848v39.35197h-49.85893l11.78002,-39.35197zM256.07588,233.12239v29.51395h-17.53131h-52.59979l8.76662,-29.51395z" fill="#d35400"/><path d="M157.02703,282.31231v-9.83798h196.75976v9.83798z" fill="#e67e22"/></g></g></g></svg>