<svg version="1.1" xmlns="http://www.w3.org/2000/svg" xmlns:xlink="http://www.w3.org/1999/xlink" width="123.62462" height="73.62462" viewBox="0,0,123.62462,73.62462"><g transform="translate(-354.68769,-285.68769)"><g data-paper-data="{&quot;isPaintingLayer&quot;:true}" fill-rule="nonzero" stroke="none" stroke-width="1" stroke-linecap="butt" stroke-linejoin="miter" stroke-miterlimit="10" stroke-dasharray="" stroke-dashoffset="0" style="mix-blend-mode: normal"><g><path d="M391.20028,286.86334l16.47226,65.20408h-16.47226h-10.98151h-16.47411l16.47411,-65.20408z" fill="#ecf0f1"/><path d="M410.14985,348.44497l6.16246,7.24489h-61.62462l6.16246,-7.24489z" fill="#f39c12"/><path d="M391.20028,286.86334l2.74538,10.86734h-16.47319l2.7463,-10.86734zM397.63389,312.22048l3.69131,14.4898h-31.23136l3.68947,-14.4898zM366.49188,341.20007h38.43528l2.74538,10.86734h-16.47226h-10.98151h-16.47411l2.74568,-10.86734z" fill="#e67e22"/><path d="M385.70952,286.86334v65.20408h-5.49076h-16.47411l16.47411,-65.20408z" fill="#bdc3c7"/><path d="M385.70952,286.86334v10.86734h-8.23705l2.7463,-10.86734zM385.70952,312.22048v14.4898h-15.61568l3.68947,-14.4898zM385.70952,341.20007v10.86734h-5.49076h-16.47411l2.74568,-10.86734z" fill="#d35400"/><path d="M354.68769,359.31231v-3.62245h61.62462v3.62245z" fill="#e67e22"/></g><g><path d="M453.20028,285.68769l16.47226,65.20408h-16.47226h-10.98151h-16.47411l16.47411,-65.20408z" fill="#ecf0f1"/><path d="M472.14985,347.26932l6.16246,7.24489h-61.62462l6.16246,-7.24489z" fill="#f39c12"/><path d="M453.20028,285.68769l2.74538,10.86734h-16.47319l2.7463,-10.86734zM459.63389,311.04483l3.69131,14.4898h-31.23136l3.68947,-14.4898zM428.49188,340.02442h38.43528l2.74538,10.86734h-16.47226h-10.98151h-16.47411l2.74568,-10.86734z" fill="#e67e22"/><path d="M447.70952,285.68769v65.20408h-5.49076h-16.47411l16.47411,-65.20408z" fill="#bdc3c7"/><path d="M447.70952,285.68769v10.86734h-8.23705l2.7463,-10.86734zM447.70952,311.04483v14.4898h-15.61568l3.68947,-14.4898zM447.70952,340.02442v10.86734h-5.49076h-16.47411l2.74568,-10.86734z" fill="#d35400"/><path d="M416.68769,358.13666v-3.62245h61.62462v3.62245z" fill="#e67e22"/></g></g></g></svg>