<svg version="1.1" xmlns="http://www.w3.org/2000/svg" xmlns:xlink="http://www.w3.org/1999/xlink" width="61.62462" height="61.62462" viewBox="0,0,61.62462,61.62462"><g transform="translate(-198.68769,-208.68769)"><g data-paper-data="{&quot;isPaintingLayer&quot;:true}" fill-rule="nonzero" stroke-linecap="butt" stroke-linejoin="miter" stroke-miterlimit="10" stroke-dasharray="" stroke-dashoffset="0" style="mix-blend-mode: normal"><g data-paper-data="{&quot;index&quot;:null}" stroke="#000000" stroke-width="0"><path d="" fill="#00e727"/><path d="" fill="#00bb1f"/><path d="" fill="#009118"/></g><g stroke="#000000" stroke-width="0"><path d="" fill="#00e727"/><path d="" fill="#00bb1f"/><path d="" fill="#009118"/></g><g stroke="#000000" stroke-width="0"><path d="" fill="#00e727"/><path d="" fill="#00bb1f"/><path d="" fill="#009118"/></g><g stroke="#000000" stroke-width="0"><path d="" fill="#00e727"/><path d="" fill="#00bb1f"/><path d="" fill="#009118"/></g><g data-paper-data="{&quot;index&quot;:null}" fill="#888888" stroke="#000000" stroke-width="0"><path d=""/><path d=""/><path d=""/></g><g fill="#888888" stroke="#000000" stroke-width="0"><path d=""/><path d=""/><path d=""/></g><g fill="#888888" stroke="#000000" stroke-width="0"><path d=""/><path d=""/><path d=""/></g><g fill="#888888" stroke="#000000" stroke-width="0"><path d=""/><path d=""/><path d=""/></g><g stroke="none" stroke-width="1"><path d="M235.20028,208.68769l16.47226,55.46216h-16.47226h-10.98151h-16.47411l16.47411,-55.46216z" fill="#ecf0f1"/><path d="M254.14985,261.06862l6.16246,6.16246h-61.62462l6.16246,-6.16246z" fill="#f39c12"/><path d="M235.20028,208.68769l2.74538,9.24369h-16.47319l2.7463,-9.24369zM241.63389,230.25631l3.69131,12.32493h-31.23136l3.68947,-12.32493zM210.49188,254.90616h38.43528l2.74538,9.24369h-16.47226h-10.98151h-16.47411l2.74568,-9.24369z" fill="#e67e22"/><path d="M229.70952,208.68769v55.46216h-5.49076h-16.47411l16.47411,-55.46216z" fill="#bdc3c7"/><path d="M229.70952,208.68769v9.24369h-8.23705l2.7463,-9.24369zM229.70952,230.25631v12.32493h-15.61568l3.68947,-12.32493zM229.70952,254.90616v9.24369h-5.49076h-16.47411l2.74568,-9.24369z" fill="#d35400"/><path d="M198.68769,270.31231v-3.08123h61.62462v3.08123z" fill="#e67e22"/></g></g></g></svg>