<svg version="1.1" xmlns="http://www.w3.org/2000/svg" xmlns:xlink="http://www.w3.org/1999/xlink" width="314.5976" height="36.09759" viewBox="0,0,314.5976,36.09759"><g transform="translate(-128.61562,-233.78829)"><g data-paper-data="{&quot;isPaintingLayer&quot;:true}" fill-rule="nonzero" stroke="none" stroke-width="1" stroke-linecap="butt" stroke-linejoin="miter" stroke-miterlimit="10" stroke-dasharray="" stroke-dashoffset="0" style="mix-blend-mode: normal"><path d="M149.1147,235.28829l9.24794,31.13784h-9.24794h-6.16529h-9.24898l9.24898,-31.13784z" fill="#ecf0f1"/><path d="M159.75346,264.69625l3.45976,3.45976h-34.5976l3.45976,-3.45976z" fill="#f39c12"/><path d="M149.1147,235.28829l1.54133,5.18964h-9.24846l1.54184,-5.18964zM152.72669,247.39745l2.07239,6.91952h-17.53406l2.07136,-6.91952zM135.24278,261.23649h21.57853l1.54133,5.18964h-9.24794h-6.16529h-9.24898l1.54149,-5.18964z" fill="#e67e22"/><path d="M146.03205,235.28829v31.13784h-3.08265h-9.24898l9.24898,-31.13784z" fill="#bdc3c7"/><path d="M146.03205,235.28829v5.18964h-4.62449l1.54184,-5.18964zM146.03205,247.39745v6.91952h-8.76703l2.07136,-6.91952zM146.03205,261.23649v5.18964h-3.08265h-9.24898l1.54149,-5.18964z" fill="#d35400"/><path d="M128.61562,269.88588v-1.72988h34.5976v1.72988z" fill="#e67e22"/><g><path d="M245.1147,233.78829l9.24794,31.13784h-9.24794h-6.16529h-9.24898l9.24898,-31.13784z" fill="#ecf0f1"/><path d="M255.75346,263.19625l3.45976,3.45976h-34.5976l3.45976,-3.45976z" fill="#f39c12"/><path d="M245.1147,233.78829l1.54133,5.18964h-9.24846l1.54184,-5.18964zM248.72669,245.89745l2.07239,6.91952h-17.53406l2.07136,-6.91952zM231.24278,259.73649h21.57853l1.54133,5.18964h-9.24794h-6.16529h-9.24898l1.54149,-5.18964z" fill="#e67e22"/><path d="M242.03205,233.78829v31.13784h-3.08265h-9.24898l9.24898,-31.13784z" fill="#bdc3c7"/><path d="M242.03205,233.78829v5.18964h-4.62449l1.54184,-5.18964zM242.03205,245.89745v6.91952h-8.76703l2.07136,-6.91952zM242.03205,259.73649v5.18964h-3.08265h-9.24898l1.54149,-5.18964z" fill="#d35400"/><path d="M224.61562,268.38588v-1.72988h34.5976v1.72988z" fill="#e67e22"/></g><g><path d="M342.1147,235.28829l9.24794,31.13784h-9.24794h-6.16529h-9.24898l9.24898,-31.13784z" fill="#ecf0f1"/><path d="M352.75346,264.69625l3.45976,3.45976h-34.5976l3.45976,-3.45976z" fill="#f39c12"/><path d="M342.1147,235.28829l1.54133,5.18964h-9.24846l1.54184,-5.18964zM345.72669,247.39745l2.07239,6.91952h-17.53406l2.07136,-6.91952zM328.24278,261.23649h21.57853l1.54133,5.18964h-9.24794h-6.16529h-9.24898l1.54149,-5.18964z" fill="#e67e22"/><path d="M339.03205,235.28829v31.13784h-3.08265h-9.24898l9.24898,-31.13784z" fill="#bdc3c7"/><path d="M339.03205,235.28829v5.18964h-4.62449l1.54184,-5.18964zM339.03205,247.39745v6.91952h-8.76703l2.07136,-6.91952zM339.03205,261.23649v5.18964h-3.08265h-9.24898l1.54149,-5.18964z" fill="#d35400"/><path d="M321.61562,269.88588v-1.72988h34.5976v1.72988z" fill="#e67e22"/></g><g><path d="M429.1147,235.28829l9.24794,31.13784h-9.24794h-6.16529h-9.24898l9.24898,-31.13784z" fill="#ecf0f1"/><path d="M439.75346,264.69625l3.45976,3.45976h-34.5976l3.45976,-3.45976z" fill="#f39c12"/><path d="M429.1147,235.28829l1.54133,5.18964h-9.24846l1.54184,-5.18964zM432.72669,247.39745l2.07239,6.91952h-17.53406l2.07136,-6.91952zM415.24278,261.23649h21.57853l1.54133,5.18964h-9.24794h-6.16529h-9.24898l1.54149,-5.18964z" fill="#e67e22"/><path d="M426.03205,235.28829v31.13784h-3.08265h-9.24898l9.24898,-31.13784z" fill="#bdc3c7"/><path d="M426.03205,235.28829v5.18964h-4.62449l1.54184,-5.18964zM426.03205,247.39745v6.91952h-8.76703l2.07136,-6.91952zM426.03205,261.23649v5.18964h-3.08265h-9.24898l1.54149,-5.18964z" fill="#d35400"/><path d="M408.61562,269.88588v-1.72988h34.5976v1.72988z" fill="#e67e22"/></g></g></g></svg>