<svg version="1.1" xmlns="http://www.w3.org/2000/svg" xmlns:xlink="http://www.w3.org/1999/xlink" width="124.62462" height="62.62462" viewBox="0,0,124.62462,62.62462"><g transform="translate(-317.68769,-219.68769)"><g data-paper-data="{&quot;isPaintingLayer&quot;:true}" fill-rule="nonzero" stroke="none" stroke-width="1" stroke-linecap="butt" stroke-linejoin="miter" stroke-miterlimit="10" stroke-dasharray="" stroke-dashoffset="0" style="mix-blend-mode: normal"><g><path d="M417.20028,219.68769l16.47226,55.46216h-16.47226h-10.98151h-16.47411l16.47411,-55.46216z" fill="#ecf0f1"/><path d="M436.14985,272.06862l6.16246,6.16246h-61.62462l6.16246,-6.16246z" fill="#f39c12"/><path d="M417.20028,219.68769l2.74538,9.24369h-16.47319l2.7463,-9.24369zM423.63389,241.25631l3.69131,12.32493h-31.23136l3.68947,-12.32493zM392.49188,265.90616h38.43528l2.74538,9.24369h-16.47226h-10.98151h-16.47411l2.74568,-9.24369z" fill="#e67e22"/><path d="M411.70952,219.68769v55.46216h-5.49076h-16.47411l16.47411,-55.46216z" fill="#bdc3c7"/><path d="M411.70952,219.68769v9.24369h-8.23705l2.7463,-9.24369zM411.70952,241.25631v12.32493h-15.61568l3.68947,-12.32493zM411.70952,265.90616v9.24369h-5.49076h-16.47411l2.74568,-9.24369z" fill="#d35400"/><path d="M380.68769,281.31231v-3.08123h61.62462v3.08123z" fill="#e67e22"/></g><g><path d="M354.20028,220.68769l16.47226,55.46216h-16.47226h-10.98151h-16.47411l16.47411,-55.46216z" fill="#ecf0f1"/><path d="M373.14985,273.06862l6.16246,6.16246h-61.62462l6.16246,-6.16246z" fill="#f39c12"/><path d="M354.20028,220.68769l2.74538,9.24369h-16.47319l2.7463,-9.24369zM360.63389,242.25631l3.69131,12.32493h-31.23136l3.68947,-12.32493zM329.49188,266.90616h38.43528l2.74538,9.24369h-16.47226h-10.98151h-16.47411l2.74568,-9.24369z" fill="#e67e22"/><path d="M348.70952,220.68769v55.46216h-5.49076h-16.47411l16.47411,-55.46216z" fill="#bdc3c7"/><path d="M348.70952,220.68769v9.24369h-8.23705l2.7463,-9.24369zM348.70952,242.25631v12.32493h-15.61568l3.68947,-12.32493zM348.70952,266.90616v9.24369h-5.49076h-16.47411l2.74568,-9.24369z" fill="#d35400"/><path d="M317.68769,282.31231v-3.08123h61.62462v3.08123z" fill="#e67e22"/></g></g></g></svg>