<svg version="1.1" xmlns="http://www.w3.org/2000/svg" xmlns:xlink="http://www.w3.org/1999/xlink" width="1005.87111" height="815.4271" viewBox="0,0,1005.87111,815.4271"><defs><radialGradient cx="93.76051" cy="49.4001" r="182.5064" gradientUnits="userSpaceOnUse" id="color-1"><stop offset="0" stop-color="#eeffd4"/><stop offset="1" stop-color="#00ccff"/></radialGradient><radialGradient cx="93.76051" cy="49.4001" r="182.5064" gradientUnits="userSpaceOnUse" id="color-2"><stop offset="0" stop-color="#eeffd4"/><stop offset="1" stop-color="#00ccff"/></radialGradient><linearGradient x1="235.48915" y1="93.05011" x2="235.48915" y2="106.03807" gradientUnits="userSpaceOnUse" id="color-3"><stop offset="0" stop-color="#ffffff"/><stop offset="1" stop-color="#ffffff"/></linearGradient></defs><g transform="translate(160.40256,133.1204)"><g data-paper-data="{&quot;isPaintingLayer&quot;:true}" stroke-linejoin="miter" stroke-miterlimit="10" stroke-dasharray="" stroke-dashoffset="0" style="mix-blend-mode: normal"><g data-paper-data="{&quot;index&quot;:null}" fill-rule="nonzero" stroke="none" stroke-linecap="butt"><path d="M175.73913,69.48949c16.95568,0.22327 34.09985,2.6794 50.95668,4.38043c10.79743,1.08957 21.65392,1.60935 32.42237,2.95554c4.87585,0.60954 14.4337,3.16834 21.11628,3.17454c33.89849,0.03144 67.79701,0.04353 101.69553,0.0429l-2.03809,39.7428l0.01763,0.36361l-0.04426,0.36134l-1.50056,67.52487l-1.49757,58.40548l-1.31488,38.13134l-0.39546,2.76821c-27.26315,-1.17861 -54.52728,-2.35613 -81.79203,-3.56177c-54.75936,-2.42144 -109.96908,-0.05361 -164.78195,-0.02502c-7.59457,0.00396 -18.45902,0.80305 -27.59691,1.57646c-0.48583,-4.78421 0.44828,-9.7226 -0.44112,-14.5124c-0.93185,-5.01834 -1.99347,-10.01173 -3.003,-15.01502c-1.85741,-9.20541 -4.09657,-17.02529 -6.12268,-26.10887c-1.87692,-8.41475 -2.21083,-17.19752 -3.87196,-25.61172c-0.00874,-2.64703 -0.01884,-5.29405 -0.03039,-7.94107c-0.02234,-5.11826 -2.53228,-8.93027 -3.59539,-13.80303c-0.57002,-2.6127 -2.37901,-12.019 -3.45577,-17.81226c0.28265,-2.49887 0.57381,-4.99746 0.87333,-7.49579c2.99118,-24.94958 7.92362,-48.64739 9.06793,-73.87413c0.147,-3.24063 0.65255,-7.82293 1.09922,-13.10157c28.0168,-0.49751 56.04228,-0.93609 84.23306,-0.56487z" fill="#00ccff" stroke-width="NaN"/><path d="" fill="#00ccff" stroke-width="NaN"/><path d="" fill="#00ccff" stroke-width="NaN"/><path d="M845.46855,60.50086l-32.54906,318.78515c-29.91311,-1.80437 -59.82691,-3.59719 -89.74031,-5.39692c-17.26537,-1.03877 -34.8922,-0.68215 -52.26032,-1.81733l15.6713,-28.86818l0.30752,-0.7321l0.40391,-0.68367l28.52852,-61.56156l0.58415,-1.68187l0.67875,-1.64596l18.01801,-60.06006l0.34803,-1.79237l0.44284,-1.77134l9.00901,-61.56156l0.0666,-1.45823l0.18667,-1.44776l1.42799,-49.9796l-0.10779,-1.51326l0.01045,-1.51705l-4.2653,-45.83737z" fill="#00ccff" stroke-width="NaN"/><path d="M664.77543,271.47981l3.64028,-42.12323l20.65886,-121.0019l6.19164,-23.43977l1.30299,14.00269l-1.34289,47.0011l-8.53246,58.30517l-16.97945,56.59817z" fill="#00ccff" stroke-width="NaN"/><path d="M781.98005,682.3067l-792.48215,-80.91514c7.5991,-14.22873 3.32295,-41.58295 3.42424,-50.28809c0.00753,-0.64701 6.38017,0.20997 6.6294,0.17495c1.15728,-0.16263 2.10896,-1.05305 3.24494,-1.32747c1.7601,-0.4252 3.70344,-0.07032 5.37936,-0.75593c4.46015,-1.82461 9.50508,-8.64308 11.53135,-13.03333c5.13813,-11.13261 2.93448,-29.26236 3.24499,-40.70114c0.14128,-5.20454 0.35043,-10.40674 0.5817,-15.60818c4.33062,0.418 8.38547,0.76733 11.81615,0.99461c38.0369,2.51985 76.07507,5.02046 114.11412,7.50751c18.61838,1.21729 49.96409,1.27477 56.7144,1.62261c5.59904,0.28852 21.40815,2.78478 31.68058,2.93359c29.04454,0.42076 58.12563,-0.3273 87.13502,1.1618c48.80843,2.50542 97.67196,8.95392 146.51126,10.76031c4.44182,0.16429 8.87368,0.29463 13.29698,0.39605l1.29962,5.11728l1.74189,1.55137l6.16566,7.13919l2.65638,0.71794l0.61641,0.54899l5.6326,1.13993l5.54774,1.49939l0.79685,-0.21537l2.69701,0.54582l8.70747,-3.62812l2.25179,-0.60859l4.77711,-5.53138l1.03414,-1.06286l0.31628,-0.50078l1.29435,-1.49872l0.3531,-1.10975l0.13258,-0.20991l1.5015,-3.00301l0.26259,-0.6893c14.38293,-0.13887 28.72793,-0.39375 43.08436,-0.58699l4.90283,16.66963l0.16844,0.41482l0.09861,0.43672l0.92411,2.77232l0.04091,0.6478l0.51552,1.02148l0.02097,0.0629l1.60584,3.58227l0.69196,0.94943l2.2817,4.52115l1.70791,0.95296l0.63007,0.86452l9.75859,5.80574l7.96736,-0.46092l7.97925,-0.1515l9.28457,-6.5371l0.56191,-0.91029l1.62978,-1.08114l1.92822,-4.68283l0.61711,-0.99971l0.69985,-1.94959l4.43498,0.25657l4.57313,-2.72073l2.83898,-0.76729l1.63729,-1.8958l0.70919,-0.42192l1.86391,-2.55745l3.21149,-3.71858l0.5318,-1.67136l1.31029,-2.92295l1.5015,-4.5045l0.09491,-0.42031c4.40347,-0.09031 8.79702,-0.31514 13.17376,-0.74852c11.37825,-1.12667 13.46523,-2.06678 22.30154,-8.15499c1.60461,-1.10557 4.18667,-1.13607 5.76527,-2.2324c2.10704,-1.46333 7.09636,-4.90498 8.59375,-7.42187c2.50659,-4.21321 4.19033,-9.54259 3.90625,-14.45312c-0.11154,-1.92802 -2.11,-3.9996 -1.15403,-5.67765c0.88044,-1.54547 3.34498,-1.21487 4.98501,-1.90332c2.67649,-1.12354 5.20965,-3.1574 7.4456,-5.08845c2.26655,-1.95747 5.33208,-6.7419 6.09866,-9.57826c0.78643,-2.90979 -0.14365,-4.87255 0.64278,-7.78234l-0.41602,-1.53929c19.50535,1.33598 39.10825,3.26317 58.64787,3.93155c8.49704,0.29066 16.36281,0.64498 23.74478,1.00281z" fill="#00ccff" stroke-width="NaN"/><path d="M-82.18594,566.79847c0.71645,-14.1938 3.05293,-26.78101 4.42464,-40.95446c2.22241,-22.96339 3.76446,-45.99126 6.15092,-68.93818c0.031,-0.29815 0.83073,-0.06279 0.86812,0.23462c1.36293,10.84181 2.27001,21.73671 3.26188,32.61874c2.89317,31.74182 5.16373,63.55602 9.07225,95.18887c0.45173,3.65593 1.20899,8.03991 2.64254,11.82194l-27.6321,-2.82133c0.58477,-8.42856 0.68962,-16.80624 1.21175,-27.1502z" fill="#00ccff" stroke-width="NaN"/><path d="M-158.72951,179.71003c0.28057,-7.60684 2.97104,1.67928 5.59177,13.55389c-0.22635,7.11982 -1.5772,17.07506 0.35441,24.8015c0.72908,2.91634 1.34741,5.92675 2.73438,8.59375c0.63071,1.21278 2.12,2.00223 3.18242,2.94699c0.34458,2.67109 0.67605,5.34398 0.99505,8.0185c-0.45444,5.84653 -1.71323,11.66768 -3.71869,17.13925c-0.59995,1.63687 -3.48367,0.59691 -5.04891,1.36457c-1.70278,0.8351 -3.91269,3.3383 -5.76346,6.02136c0.16962,-27.48709 0.6598,-54.96826 1.67305,-82.43981z" fill="#00ccff" stroke-width="NaN"/><path d="" fill="#00ccff" stroke-width="NaN"/><path d="M-147.96343,-40.93195l2.21504,0.22617c-1.13736,24.4528 -2.47465,48.85859 -3.70027,73.25797c-1.55572,-4.64209 -3.09434,-9.28941 -4.59355,-13.94859z" fill="#00ccff" stroke-width="NaN"/><path d="M-140.18311,582.93817c1.04656,-1.21181 1.70601,-5.26625 2.06636,-3.0947c0.39337,2.3705 0.6145,5.34045 0.79225,8.59909l-7.42906,-0.75853c1.77525,-1.53071 3.41467,-3.40759 4.57045,-4.74586z" fill="#00ccff" stroke-width="NaN"/><path d="M175.73913,69.48949c16.95568,0.22327 34.09985,2.6794 50.95668,4.38043c10.79743,1.08957 21.65392,1.60935 32.42237,2.95554c3.44153,0.43023 9.21565,1.83159 14.66485,2.62101c-14.73431,88.80546 -92.34406,153.46793 -181.86049,152.46257c-0.16903,-0.73082 -0.33697,-1.4687 -0.50346,-2.21511c-1.87692,-8.41475 -2.21083,-17.19752 -3.87196,-25.61172c-0.00874,-2.64703 -0.01884,-5.29405 -0.03039,-7.94107c-0.02234,-5.11826 -2.53228,-8.93027 -3.59539,-13.80303c-0.57002,-2.6127 -2.37901,-12.019 -3.45577,-17.81226c0.28265,-2.49887 0.57381,-4.99746 0.87333,-7.49579c2.99118,-24.94958 7.92362,-48.64739 9.06793,-73.87413c0.147,-3.24063 0.65255,-7.82293 1.09922,-13.10157c28.0168,-0.49751 56.04228,-0.93609 84.23306,-0.56487z" fill="url(#color-1)" stroke-width="NaN"/><path d="M112.29865,-132.16234c23.22453,2.37131 44.98537,8.9992 64.58748,19.03057c-44.52427,-1.85103 -89.04449,-3.81116 -133.57438,-5.51771c-4.81528,-0.18454 -11.38633,-0.41328 -19.22243,-0.67338c27.00634,-11.17953 57.09335,-16.01654 88.20934,-12.83948z" fill="url(#color-2)" stroke-width="NaN"/><path d="M92.70279,119.85182c-2.01509,-0.20575 -4.00578,-0.48247 -5.96984,-0.82743c1.67894,-11.80818 3.12007,-23.65925 3.67389,-35.86846c0.147,-3.24063 0.65255,-7.82293 1.09922,-13.10157c28.0168,-0.49751 56.04228,-0.93609 84.23306,-0.56487c0.48119,0.00634 0.96252,0.01447 1.44401,0.02433c-13.58831,32.72411 -47.41766,54.12222 -84.48034,50.338z" fill="#d3ff93" stroke-width="NaN"/><path d="" fill="#d3ff93" stroke-width="NaN"/></g><path d="M115.23104,107.18242c-0.47502,-0.58663 -0.71254,-1.11317 -0.71254,-1.57961c0,-0.46644 0.39347,-1.08455 1.18041,-1.85432c0.45786,-0.44069 0.9429,-0.66103 1.45513,-0.66103c0.51509,0 1.23049,0.45786 2.1462,1.37357c0.25468,0.31191 0.62097,0.60952 1.09885,0.89282c0.47502,0.2833 0.91428,0.42495 1.31777,0.42495c1.70265,0 2.55398,-0.69537 2.55398,-2.08611c0,-0.42066 -0.23322,-0.77263 -0.69966,-1.05593c-0.46644,-0.28616 -1.04878,-0.49219 -1.74701,-0.61811c-0.69537,-0.12877 -1.44511,-0.33481 -2.24922,-0.61811c-0.80697,-0.28616 -1.55814,-0.62097 -2.25351,-1.00442c-0.69537,-0.38346 -1.27771,-0.99298 -1.74701,-1.82856c-0.46644,-0.83273 -0.69966,-1.83429 -0.69966,-3.00468c0,-1.61394 0.5995,-3.02042 1.79852,-4.21943c1.20187,-1.19901 2.83728,-1.79852 4.90621,-1.79852c1.09885,0 2.10185,0.14165 3.00897,0.42495c0.90426,0.2833 1.53095,0.57232 1.88007,0.86706l0.68678,0.51938c0.5666,0.53226 0.84989,0.98153 0.84989,1.34782c0,0.36629 -0.21891,0.86993 -0.65674,1.51092c-0.62383,0.91572 -1.26483,1.37357 -1.92299,1.37357c-0.38632,0 -0.86277,-0.18314 -1.42937,-0.54943c-0.05437,-0.0372 -0.16025,-0.12877 -0.31764,-0.27471c-0.15453,-0.14594 -0.29618,-0.2647 -0.42495,-0.35627c-0.38346,-0.23751 -0.87279,-0.35627 -1.468,-0.35627c-0.59521,0 -1.09027,0.14165 -1.48517,0.42495c-0.39204,0.2833 -0.58806,0.67677 -0.58806,1.18041c0,0.50364 0.23322,0.91142 0.69966,1.22333c0.46644,0.31191 1.04735,0.52224 1.74272,0.63099c0.69537,0.10874 1.45513,0.27757 2.27927,0.5065c0.82414,0.22893 1.58533,0.50936 2.28356,0.84131c0.69537,0.32908 1.27627,0.9014 1.74272,1.71696c0.46644,0.8127 0.69966,1.81426 0.69966,3.00468c0,1.19043 -0.23751,2.2392 -0.71254,3.14633c-0.47789,0.90713 -1.10029,1.60822 -1.8672,2.10328c-1.48517,0.97008 -3.0705,1.45513 -4.75598,1.45513c-0.85848,0 -1.67261,-0.10588 -2.44237,-0.31764c-0.76977,-0.2089 -1.39217,-0.4693 -1.8672,-0.78122c-0.97295,-0.58663 -1.65114,-1.15466 -2.0346,-1.70408zM132.84277,97.34852c1.53668,-1.4308 3.29513,-2.1462 5.27536,-2.1462c1.97737,0 3.7258,0.70968 5.24532,2.12903c1.51951,1.41935 2.27927,3.22789 2.27927,5.4256c0,1.52237 -0.39347,2.87305 -1.18041,4.05203c-0.78694,1.18184 -1.74415,2.05177 -2.87162,2.60978c-1.12461,0.56088 -2.29214,0.84131 -3.5026,0.84131c-1.2076,0 -2.37942,-0.29761 -3.51548,-0.89282c-1.13605,-0.59521 -2.09326,-1.47516 -2.87162,-2.63983c-0.77836,-1.16181 -1.16754,-2.47529 -1.16754,-3.94042c0,-2.19771 0.76977,-4.01053 2.30931,-5.43847zM136.27669,104.74863c0.58663,0.44927 1.18184,0.67391 1.78564,0.67391c0.6038,0 1.2076,-0.22893 1.81139,-0.68678c0.6038,-0.45786 0.9057,-1.13462 0.9057,-2.0303c0,-0.89855 -0.2833,-1.56816 -0.84989,-2.00885c-0.5666,-0.43782 -1.18041,-0.65674 -1.84144,-0.65674c-0.65817,0 -1.27198,0.22893 -1.84144,0.68678c-0.5666,0.45786 -0.84989,1.13034 -0.84989,2.01743c0,0.88996 0.29331,1.55814 0.87994,2.00455zM151.96114,102.77412c0,0.77836 0.25611,1.38216 0.76834,1.81139c0.51509,0.42924 1.06023,0.64386 1.6354,0.64386c0.57804,0 1.11888,-0.16884 1.62253,-0.5065c0.50364,-0.33767 0.91142,-0.5065 1.22333,-0.5065c0.54943,0 1.21761,0.48504 2.00455,1.45513c0.42066,0.5294 0.63099,1.00586 0.63099,1.42937c0,0.69537 -0.50364,1.34496 -1.51092,1.94875c-1.04448,0.73257 -2.32648,1.09885 -3.84599,1.09885c-1.70265,0 -3.34235,-0.61382 -4.91909,-1.84144c-0.74974,-0.58663 -1.36212,-1.36928 -1.83715,-2.34794c-0.47789,-0.97867 -0.71683,-2.05892 -0.71683,-3.24076c0,-1.18184 0.23895,-2.25351 0.71683,-3.21501c0.47502,-0.9615 1.08741,-1.73556 1.83715,-2.32219c1.52237,-1.2076 3.14347,-1.81139 4.86329,-1.81139c0.69537,0 1.37357,0.09586 2.0346,0.28759c0.65817,0.19173 1.14321,0.37916 1.45513,0.5623l0.43782,0.27471c0.33195,0.22034 0.58949,0.3949 0.77263,0.52368c0.47502,0.36629 0.71254,0.78265 0.71254,1.24909c0,0.46644 -0.19173,0.99298 -0.57518,1.57961c-0.66103,1.00728 -1.29344,1.51092 -1.89724,1.51092c-0.34912,0 -0.84417,-0.20174 -1.48517,-0.60523c-0.32908,-0.31191 -0.79982,-0.46787 -1.4122,-0.46787c-0.61524,0 -1.18757,0.22034 -1.71696,0.66103c-0.53226,0.44069 -0.79839,1.05021 -0.79839,1.82856zM165.88998,102.77412c0,0.77836 0.25611,1.38216 0.76834,1.81139c0.51223,0.42924 1.05736,0.64386 1.6354,0.64386c0.57804,0 1.11888,-0.16884 1.62253,-0.5065c0.50364,-0.33767 0.90999,-0.5065 1.21904,-0.5065c0.54943,0 1.21904,0.48504 2.00885,1.45513c0.42066,0.5294 0.63099,1.00586 0.63099,1.42937c0,0.69537 -0.50364,1.34496 -1.51092,1.94875c-1.04448,0.73257 -2.32648,1.09885 -3.84599,1.09885c-1.70265,0 -3.34235,-0.61382 -4.91909,-1.84144c-0.74974,-0.58663 -1.36355,-1.36928 -1.84144,-2.34794c-0.47502,-0.97867 -0.71254,-2.05892 -0.71254,-3.24076c0,-1.18184 0.23751,-2.25351 0.71254,-3.21501c0.47789,-0.9615 1.0917,-1.73556 1.84144,-2.32219c1.51951,-1.2076 3.14061,-1.81139 4.86329,-1.81139c0.69537,0 1.37357,0.09586 2.0346,0.28759c0.65817,0.19173 1.14321,0.37916 1.45513,0.5623l0.43782,0.27471c0.32908,0.22034 0.5852,0.3949 0.76834,0.52368c0.47789,0.36629 0.71683,0.78265 0.71683,1.24909c0,0.46644 -0.19316,0.99298 -0.57947,1.57961c-0.65817,1.00728 -1.28915,1.51092 -1.89295,1.51092c-0.34912,0 -0.84417,-0.20174 -1.48517,-0.60523c-0.32908,-0.31191 -0.79982,-0.46787 -1.4122,-0.46787c-0.61524,0 -1.18757,0.22034 -1.71696,0.66103c-0.53226,0.44069 -0.79839,1.05021 -0.79839,1.82856zM189.1033,101.03999c0,1.12747 -0.27901,1.96163 -0.83702,2.50247c-0.55801,0.54084 -1.17612,0.81126 -1.85432,0.81126h-6.51157c0,0.51223 0.3019,0.94147 0.9057,1.28772c0.6038,0.34912 1.20902,0.52368 1.81568,0.52368c1.06165,0 1.89438,-0.11017 2.49818,-0.33051l0.30047,-0.10731c0.44069,-0.20317 0.80697,-0.30476 1.09885,-0.30476c0.58663,0 1.09027,0.41207 1.51092,1.23621c0.24037,0.49506 0.36056,0.91714 0.36056,1.26626c0,1.62825 -1.95161,2.44237 -5.85484,2.44237c-1.35354,0 -2.55684,-0.23322 -3.60991,-0.69966c-1.05307,-0.46644 -1.87292,-1.08455 -2.45955,-1.85432c-1.15323,-1.48231 -1.72984,-3.13918 -1.72984,-4.9706c0,-2.30931 0.74545,-4.15504 2.23634,-5.5372c1.49375,-1.38216 3.35809,-2.07323 5.593,-2.07323c2.54396,0 4.41116,0.89711 5.60159,2.69134c0.62383,0.95292 0.93575,1.99168 0.93575,3.11628zM183.30855,101.85126c0.69537,0 1.04306,-0.29331 1.04306,-0.87994c0,-0.42066 -0.16025,-0.75833 -0.48075,-1.01301c-0.3205,-0.25754 -0.77836,-0.38632 -1.37357,-0.38632c-0.59521,0 -1.18613,0.24324 -1.77276,0.72971c-0.58663,0.48361 -0.87994,1.00013 -0.87994,1.54956zM200.72283,95.70024c0.34912,0.10874 0.63814,0.29618 0.86706,0.5623c0.22893,0.26613 0.34339,0.69108 0.34339,1.27485c0,0.58663 -0.17456,1.22763 -0.52368,1.92299c-0.34626,0.69823 -0.84989,1.04735 -1.51092,1.04735c-0.32908,0 -0.64529,-0.0744 -0.94862,-0.2232c-0.30047,-0.14594 -0.69823,-0.21891 -1.19329,-0.21891c-0.49506,0 -0.9572,0.17456 -1.38644,0.52368c-0.4321,0.34626 -0.64815,0.76691 -0.64815,1.26197v5.76899c0,0.42066 -0.01288,0.73686 -0.03863,0.94862c-0.02862,0.21176 -0.11589,0.45499 -0.26184,0.72971c-0.27471,0.47502 -0.98868,0.71254 -2.14191,0.71254c-0.87851,0 -1.51092,-0.15596 -1.89724,-0.46787c-0.29188,-0.25468 -0.45643,-0.64815 -0.49363,-1.18041c0,-0.18314 0,-0.44927 0,-0.79839v-9.64074c0,-0.42066 0.01431,-0.73686 0.04292,-0.94862c0.02575,-0.2089 0.10302,-0.44212 0.23179,-0.69966c0.25754,-0.49506 0.97151,-0.74259 2.14191,-0.74259c1.09885,0 1.78564,0.21033 2.06035,0.63099c0.20317,0.29474 0.30476,0.59808 0.30476,0.90999c0.09157,-0.12877 0.2232,-0.28473 0.3949,-0.46787c0.17456,-0.18314 0.54657,-0.43067 1.11602,-0.74259c0.5666,-0.31191 1.06451,-0.46787 1.49375,-0.46787c0.4321,0 0.79409,0.02289 1.08598,0.06868c0.29474,0.04578 0.61524,0.12448 0.9615,0.23608zM225.25391,93.94036c0.47789,0.97008 0.71683,2.05034 0.71683,3.24076c0,1.19043 -0.23895,2.26639 -0.71683,3.22789c-0.47502,0.9615 -1.08741,1.72698 -1.83715,2.29644c-1.52237,1.1704 -3.09769,1.75559 -4.72594,1.75559h-3.43392v3.10341c0,0.42352 -0.01431,0.73972 -0.04292,0.94862c-0.02575,0.21176 -0.11303,0.45499 -0.26184,0.72971c-0.25468,0.49506 -0.96865,0.74259 -2.14191,0.74259c-1.282,0 -2.03317,-0.3391 -2.25351,-1.0173c-0.10874,-0.31191 -0.16311,-0.78837 -0.16311,-1.42937v-15.24662c0,-0.42066 0.01431,-0.73686 0.04292,-0.94862c0.02575,-0.2089 0.1116,-0.4507 0.25754,-0.72542c0.25754,-0.49506 0.97295,-0.74259 2.1462,-0.74259h5.8763c1.61108,0 3.17781,0.5852 4.70018,1.75559c0.74974,0.56946 1.36212,1.33923 1.83715,2.30931zM218.71658,99.59774c0.54943,0 1.09027,-0.20031 1.62253,-0.60094c0.5294,-0.40349 0.79409,-1.00871 0.79409,-1.81568c0,-0.80411 -0.2647,-1.4122 -0.79409,-1.82427c-0.53226,-0.41207 -1.08168,-0.61811 -1.64828,-0.61811h-3.43392v4.859zM227.75638,91.13742c0,-0.42066 0.01288,-0.73686 0.03863,-0.94862c0.02862,-0.2089 0.10731,-0.4507 0.23608,-0.72542c0.25468,-0.49506 0.96865,-0.74259 2.14191,-0.74259c1.11602,0 1.81139,0.24753 2.08611,0.74259c0.1488,0.27471 0.23608,0.52224 0.26184,0.74259c0.02862,0.21748 0.04292,0.53798 0.04292,0.9615v12.71839c0,0.65817 0.05437,1.07453 0.16311,1.24909c0.1116,0.17456 0.35484,0.26184 0.72971,0.26184c0.37487,0 0.62669,0.01288 0.75546,0.03863c0.12877,0.02862 0.28473,0.10731 0.46787,0.23608c0.36629,0.23751 0.54943,0.88709 0.54943,1.94875c0,1.15323 -0.18314,1.85861 -0.54943,2.11616c-0.47789,0.32908 -1.61394,0.38346 -3.40817,0.16311c-1.41077,-0.18314 -2.32648,-0.64958 -2.74714,-1.39932c-0.51223,-0.89855 -0.76834,-2.32648 -0.76834,-4.28382zM246.13216,97.07381c0.1116,-1.02731 0.83559,-1.54097 2.17196,-1.54097c0.7154,0 1.24623,0.0558 1.59248,0.1674c0.34912,0.10874 0.59235,0.30047 0.72971,0.57518c0.13736,0.27471 0.21891,0.51795 0.24467,0.72971c0.02862,0.2089 0.04292,0.52368 0.04292,0.94433v9.61498c0,0.42352 -0.01431,0.73972 -0.04292,0.94862c-0.02575,0.21176 -0.10302,0.45499 -0.23179,0.72971c-0.25754,0.47502 -0.88423,0.71254 -1.88007,0.71254c-0.9987,0 -1.66831,-0.12305 -2.00885,-0.36915c-0.33767,-0.24896 -0.53369,-0.61095 -0.58806,-1.08598c-0.6782,0.97008 -1.80996,1.45513 -3.39529,1.45513c-1.58247,0 -3.0519,-0.72255 -4.4083,-2.16766c-1.35354,-1.44797 -2.0303,-3.12916 -2.0303,-5.04357c0,-1.91441 0.68106,-3.58988 2.04318,-5.0264c1.36499,-1.43652 2.86303,-2.15479 4.49414,-2.15479c0.62097,0 1.18899,0.10874 1.70408,0.32622c0.51223,0.22034 0.8685,0.42638 1.06881,0.61811c0.20317,0.19459 0.36771,0.38346 0.49363,0.5666zM241.1358,102.787c0,0.6038 0.23751,1.14893 0.71254,1.6354c0.47502,0.48361 1.05164,0.72542 1.72984,0.72542c0.6782,0 1.24193,-0.24753 1.69121,-0.74259c0.44927,-0.49219 0.67391,-1.0359 0.67391,-1.63111c0,-0.59521 -0.21605,-1.15037 -0.64815,-1.66545c-0.42924,-0.51223 -1.00586,-0.76834 -1.72984,-0.76834c-0.72398,0 -1.31062,0.25611 -1.75989,0.76834c-0.44641,0.51509 -0.66961,1.07453 -0.66961,1.67833zM261.51613,100.39613l-1.78564,-0.1116v3.79449c0,0.49219 0.07869,0.84847 0.23608,1.06881c0.15453,0.22034 0.44784,0.33051 0.87994,0.33051c0.42924,0 0.75833,0.01431 0.98725,0.04292c0.22893,0.02575 0.47216,0.1116 0.72971,0.25754c0.42066,0.24037 0.63099,0.85419 0.63099,1.84144c0,1.15323 -0.25611,1.85861 -0.76834,2.11616c-0.27471,0.12877 -0.51795,0.20604 -0.72971,0.23179c-0.21176,0.02862 -0.51795,0.04292 -0.91857,0.04292c-1.90583,0 -3.3538,-0.43067 -4.34391,-1.29201c-0.98725,-0.86134 -1.48088,-2.31647 -1.48088,-4.36537v-4.0692c-0.34912,0.05723 -0.72542,0.08585 -1.1289,0.08585c-0.40062,0 -0.734,-0.15596 -1.00013,-0.46787c-0.26613,-0.31191 -0.39919,-0.84274 -0.39919,-1.59248c0,-0.7526 0.04578,-1.29774 0.13736,-1.6354c0.09157,-0.34053 0.22034,-0.58377 0.38632,-0.72971c0.29188,-0.23751 0.65817,-0.35627 1.09885,-0.35627l0.9057,0.1116v-2.83299c0,-0.42066 0.01288,-0.73114 0.03863,-0.93145c0.02862,-0.20317 0.11589,-0.42352 0.26184,-0.66103c0.23751,-0.45786 0.9429,-0.68678 2.11616,-0.68678c1.2448,0 1.98595,0.3391 2.22347,1.0173c0.09157,0.29188 0.13736,0.75833 0.13736,1.39932v2.69563c0.80697,-0.0744 1.41649,-0.1116 1.82856,-0.1116c0.41207,0 0.72398,0.01431 0.93575,0.04292c0.2089,0.02575 0.4507,0.1116 0.72542,0.25754c0.47789,0.24037 0.71683,0.94576 0.71683,2.11616c0,1.15323 -0.24753,1.85861 -0.74259,2.11616c-0.27471,0.12877 -0.51795,0.20604 -0.72971,0.23179c-0.2089,0.02862 -0.5251,0.04292 -0.94862,0.04292zM272.12266,95.726l1.78564,-0.16311c1.26197,0 2.00312,0.34768 2.22347,1.04306c0.1116,0.34626 0.1674,0.80411 0.1674,1.37357c0,0.5666 -0.06009,1.02016 -0.18028,1.36069c-0.12019,0.33767 -0.30762,0.57947 -0.5623,0.72542c-0.38632,0.22034 -0.94576,0.33051 -1.67833,0.33051l-1.75559,-0.1116v7.36576c0,0.69537 -0.08728,1.21189 -0.26184,1.54956c-0.17456,0.34053 -0.44069,0.56516 -0.79839,0.67391c-0.35484,0.10874 -0.81699,0.16311 -1.38644,0.16311c-0.5666,0 -1.02016,-0.05866 -1.36069,-0.17599c-0.33767,-0.12019 -0.57947,-0.31335 -0.72542,-0.57947c-0.14594,-0.26327 -0.23322,-0.50507 -0.26184,-0.72542c-0.02862,-0.22034 -0.04292,-0.54084 -0.04292,-0.9615v-7.27992h-0.98725c-0.47502,-0.0372 -0.81412,-0.14737 -1.0173,-0.33051c-0.34626,-0.34912 -0.51938,-1.0173 -0.51938,-2.00455c0,-1.50234 0.53941,-2.25351 1.61823,-2.25351h0.9057v-1.45513c0,-1.41077 0.50364,-2.68848 1.51092,-3.83311c1.00728,-1.14464 2.46384,-1.71696 4.36966,-1.71696c0.42066,0 0.73686,0.01431 0.94862,0.04292c0.2089,0.02575 0.4507,0.1116 0.72542,0.25754c0.49506,0.24037 0.74259,0.94576 0.74259,2.11616c0,0.87851 -0.15596,1.51092 -0.46787,1.89724c-0.25468,0.29188 -0.65674,0.45643 -1.20616,0.49363c-0.16597,0 -0.42209,0 -0.76834,0c-0.6782,0 -1.0173,0.22893 -1.0173,0.68678zM279.15362,97.34852c1.53954,-1.4308 3.298,-2.1462 5.27536,-2.1462c1.97737,0 3.7258,0.70968 5.24532,2.12903c1.52237,1.41935 2.28356,3.22789 2.28356,5.4256c0,1.52237 -0.3949,2.87305 -1.1847,4.05203c-0.78694,1.18184 -1.74272,2.05177 -2.86733,2.60978c-1.12747,0.56088 -2.295,0.84131 -3.5026,0.84131c-1.21046,0 -2.38372,-0.29761 -3.51977,-0.89282c-1.1332,-0.59521 -2.08897,-1.47516 -2.86733,-2.63983c-0.77836,-1.16181 -1.16754,-2.47529 -1.16754,-3.94042c0,-2.19771 0.76834,-4.01053 2.30502,-5.43847zM282.58754,104.74863c0.58663,0.44927 1.18184,0.67391 1.78564,0.67391c0.6038,0 1.20902,-0.22893 1.81568,-0.68678c0.6038,-0.45786 0.9057,-1.13462 0.9057,-2.0303c0,-0.89855 -0.28473,-1.56816 -0.85419,-2.00885c-0.5666,-0.43782 -1.17898,-0.65674 -1.83715,-0.65674c-0.66103,0 -1.27485,0.22893 -1.84144,0.68678c-0.56946,0.45786 -0.85419,1.13034 -0.85419,2.01743c0,0.88996 0.29331,1.55814 0.87994,2.00455zM303.57739,95.70024c0.34626,0.10874 0.63384,0.29618 0.86277,0.5623c0.22893,0.26613 0.34339,0.69108 0.34339,1.27485c0,0.58663 -0.17313,1.22763 -0.51938,1.92299c-0.34912,0.69823 -0.85276,1.04735 -1.51092,1.04735c-0.32908,0 -0.64529,-0.0744 -0.94862,-0.2232c-0.30333,-0.14594 -0.7011,-0.21891 -1.19329,-0.21891c-0.49506,0 -0.95864,0.17456 -1.39074,0.52368c-0.42924,0.34626 -0.64386,0.76691 -0.64386,1.26197v5.76899c0,0.42066 -0.01431,0.73686 -0.04292,0.94862c-0.02575,0.21176 -0.1116,0.45499 -0.25754,0.72971c-0.27471,0.47502 -0.99012,0.71254 -2.1462,0.71254c-0.87851,0 -1.5095,-0.15596 -1.89295,-0.46787c-0.29474,-0.25468 -0.45929,-0.64815 -0.49363,-1.18041c0,-0.18314 0,-0.44927 0,-0.79839v-9.64074c0,-0.42066 0.01288,-0.73686 0.03863,-0.94862c0.02862,-0.2089 0.10731,-0.44212 0.23608,-0.69966c0.25468,-0.49506 0.96865,-0.74259 2.14191,-0.74259c1.09885,0 1.78564,0.21033 2.06035,0.63099c0.20031,0.29474 0.30047,0.59808 0.30047,0.90999c0.09157,-0.12877 0.22464,-0.28473 0.39919,-0.46787c0.17456,-0.18314 0.54513,-0.43067 1.11173,-0.74259c0.56946,-0.31191 1.06881,-0.46787 1.49805,-0.46787c0.42924,0 0.79124,0.02289 1.08598,0.06868c0.29188,0.04578 0.61238,0.12448 0.9615,0.23608zM311.02042,97.45583c0.86134,-1.29917 1.89581,-1.94875 3.10341,-1.94875c1.86863,0 3.26079,0.79695 4.17651,2.39087c0.20317,-0.27471 0.44641,-0.56374 0.72971,-0.86706c0.2833,-0.30333 0.73686,-0.63241 1.36069,-0.98725c0.62097,-0.3577 1.26197,-0.53655 1.92299,-0.53655c1.46514,0 2.69134,0.5623 3.67859,1.68692c0.99012,1.12747 1.48517,2.9918 1.48517,5.593v4.80749c0,0.42066 -0.01431,0.73686 -0.04292,0.94862c-0.02575,0.2089 -0.11303,0.4507 -0.26184,0.72542c-0.23751,0.49506 -0.94147,0.74259 -2.11186,0.74259c-1.15609,0 -1.86147,-0.25611 -2.11616,-0.76834c-0.12877,-0.27471 -0.20747,-0.51795 -0.23608,-0.72971c-0.02575,-0.2089 -0.03863,-0.5251 -0.03863,-0.94862v-4.80749c0,-1.59105 -0.56803,-2.38658 -1.70408,-2.38658c-0.641,0 -1.07596,0.21033 -1.30489,0.63099c-0.22893,0.42066 -0.34339,1.01587 -0.34339,1.78564v4.80749c0,0.43782 -0.01431,0.75833 -0.04292,0.9615c-0.02575,0.20031 -0.1116,0.43782 -0.25754,0.71254c-0.25754,0.49506 -0.97295,0.74259 -2.1462,0.74259c-1.15323,0 -1.85718,-0.25611 -2.11186,-0.76834c-0.12877,-0.27471 -0.20747,-0.51795 -0.23608,-0.72971c-0.02575,-0.2089 -0.03863,-0.5251 -0.03863,-0.94862v-4.80749c0,-1.59105 -0.56803,-2.38658 -1.70408,-2.38658c-1.09885,0 -1.64828,0.79553 -1.64828,2.38658v4.86329c0,0.42066 -0.01431,0.73686 -0.04292,0.94862c-0.02575,0.21176 -0.11303,0.45499 -0.26184,0.72971c-0.27471,0.47502 -0.98868,0.71254 -2.14191,0.71254c-1.15323,0 -1.85861,-0.24753 -2.11616,-0.74259c-0.12591,-0.27471 -0.20317,-0.51223 -0.23179,-0.71254c-0.02862,-0.20317 -0.04292,-0.52368 -0.04292,-0.9615v-9.67079c0,-0.42066 0.01431,-0.73686 0.04292,-0.94862c0.02862,-0.2089 0.11589,-0.44212 0.26184,-0.69966c0.27471,-0.49506 0.9243,-0.74259 1.94875,-0.74259c1.02731,0 1.6955,0.16454 2.00455,0.49363c0.31191,0.33195 0.46787,0.80841 0.46787,1.42937zM343.6298,101.03999c0,1.12747 -0.27901,1.96163 -0.83702,2.50247c-0.55801,0.54084 -1.17612,0.81126 -1.85432,0.81126h-6.51157c0,0.51223 0.3019,0.94147 0.9057,1.28772c0.6038,0.34912 1.20902,0.52368 1.81568,0.52368c1.06165,0 1.89438,-0.11017 2.49818,-0.33051l0.30047,-0.10731c0.44069,-0.20317 0.80697,-0.30476 1.09885,-0.30476c0.58663,0 1.09027,0.41207 1.51092,1.23621c0.24037,0.49506 0.36056,0.91714 0.36056,1.26626c0,1.62825 -1.95161,2.44237 -5.85484,2.44237c-1.35354,0 -2.55684,-0.23322 -3.60991,-0.69966c-1.05307,-0.46644 -1.87292,-1.08455 -2.45955,-1.85432c-1.15323,-1.48231 -1.72984,-3.13918 -1.72984,-4.9706c0,-2.30931 0.74545,-4.15504 2.23634,-5.5372c1.49375,-1.38216 3.35809,-2.07323 5.593,-2.07323c2.54396,0 4.41116,0.89711 5.60159,2.69134c0.62383,0.95292 0.93575,1.99168 0.93575,3.11628zM337.83505,101.85126c0.69537,0 1.04306,-0.29331 1.04306,-0.87994c0,-0.42066 -0.16025,-0.75833 -0.48075,-1.01301c-0.3205,-0.25754 -0.77836,-0.38632 -1.37357,-0.38632c-0.59521,0 -1.18613,0.24324 -1.77276,0.72971c-0.58663,0.48361 -0.87994,1.00013 -0.87994,1.54956zM355.24933,95.70024c0.34912,0.10874 0.63814,0.29618 0.86706,0.5623c0.22893,0.26613 0.34339,0.69108 0.34339,1.27485c0,0.58663 -0.17456,1.22763 -0.52368,1.92299c-0.34626,0.69823 -0.84989,1.04735 -1.51092,1.04735c-0.32908,0 -0.64529,-0.0744 -0.94862,-0.2232c-0.30047,-0.14594 -0.69823,-0.21891 -1.19329,-0.21891c-0.49506,0 -0.9572,0.17456 -1.38644,0.52368c-0.4321,0.34626 -0.64815,0.76691 -0.64815,1.26197v5.76899c0,0.42066 -0.01288,0.73686 -0.03863,0.94862c-0.02862,0.21176 -0.11589,0.45499 -0.26184,0.72971c-0.27471,0.47502 -0.98868,0.71254 -2.14191,0.71254c-0.87851,0 -1.51092,-0.15596 -1.89724,-0.46787c-0.29188,-0.25468 -0.45643,-0.64815 -0.49363,-1.18041c0,-0.18314 0,-0.44927 0,-0.79839v-9.64074c0,-0.42066 0.01431,-0.73686 0.04292,-0.94862c0.02575,-0.2089 0.10302,-0.44212 0.23179,-0.69966c0.25754,-0.49506 0.97151,-0.74259 2.14191,-0.74259c1.09885,0 1.78564,0.21033 2.06035,0.63099c0.20317,0.29474 0.30476,0.59808 0.30476,0.90999c0.09157,-0.12877 0.2232,-0.28473 0.3949,-0.46787c0.17456,-0.18314 0.54657,-0.43067 1.11602,-0.74259c0.5666,-0.31191 1.06451,-0.46787 1.49375,-0.46787c0.4321,0 0.79409,0.02289 1.08598,0.06868c0.29474,0.04578 0.61524,0.12448 0.9615,0.23608z" fill="url(#color-3)" fill-rule="nonzero" stroke="#000000" stroke-width="1" stroke-linecap="butt"/><g fill-rule="nonzero"><path d="M376.87924,245.96826l-0.01212,0.47273l-1.31488,38.13134l-0.39546,2.76821c-27.26315,-1.17861 -54.52728,-2.35613 -81.79203,-3.56177c-54.75936,-2.42144 -109.96908,-0.05361 -164.78195,-0.02502c-7.59457,0.00396 -18.45902,0.80305 -27.59691,1.57646c-0.48583,-4.78421 0.44828,-9.7226 -0.44112,-14.5124c-0.93185,-5.01834 -1.99347,-10.01173 -3.003,-15.01502c-0.69097,-3.42446 -1.43476,-6.65717 -2.20077,-9.83454z" fill="#965700" stroke="none" stroke-width="0" stroke-linecap="butt"/><path d="M377.31354,229.03064l-286.1515,-0.53687" fill="none" stroke="#4eff00" stroke-width="37.5" stroke-linecap="round"/><path d="M91.15453,228.45721h286.17371" fill="none" stroke="#4eff00" stroke-width="37.5" stroke-linecap="round"/><g fill="none" stroke="#40d600" stroke-width="12.5" stroke-linecap="round"><g><g><path d="M109.2548,240.48962v-30.13252v31.04563"/><path d="M143.95286,240.48962v-30.13252v31.04563"/></g><g><path d="M179.56403,240.48962v-30.13252v31.04563"/><path d="M214.26209,241.40273v-31.04563v30.13252"/></g></g><g><g><path d="M253.52568,241.40273v-31.04563v30.13252"/><path d="M288.22374,241.40273v-31.04563v30.13252"/></g><g><path d="M323.8349,241.40273v-31.04563v30.13252"/><path d="M358.53296,240.48962v-30.13252v31.04563"/></g></g></g><g fill="none" stroke="none" stroke-width="1" stroke-linecap="butt" font-family="sans-serif" font-weight="normal" font-size="12" text-anchor="start"><g/><g/></g><path d="M376.49917,257.11132l-278.50214,0.93301" fill="none" stroke="#864e00" stroke-width="17.5" stroke-linecap="round"/><g fill="none" stroke="none" stroke-width="1" stroke-linecap="butt" font-family="sans-serif" font-weight="normal" font-size="12" text-anchor="start"><g/><g/></g><path d="M376.68207,251.80746l-279.78084,0.93729" fill="none" stroke="#39bf00" stroke-width="17.5" stroke-linecap="round"/><path d="M155.41639,209.8131c-3.64953,14.97231 -27.18045,27.43738 -55.6646,27.43738c-1.04684,0 -2.08699,-0.0156 -3.1197,-0.04641" data-paper-data="{&quot;index&quot;:null}" fill="none" stroke="#ffffff" stroke-width="5" stroke-linecap="butt"/><path d="M364.28705,209.96448c-1.92116,14.26943 -25.25147,25.54109 -53.74956,25.54109c-28.49808,0 -51.82839,-11.27167 -53.74956,-25.54109" fill="none" stroke="#ffffff" stroke-width="5" stroke-linecap="butt"/><path d="M307.88586,212.12288v23.19793" fill="none" stroke="#ffffff" stroke-width="5" stroke-linecap="round"/></g><g stroke-linecap="butt"><path d="M122.7218,194.99734c-10.64492,-27.11235 2.70454,-57.7207 29.81692,-68.36565c27.11235,-10.64492 57.7207,2.70454 68.36565,29.81692c10.64492,27.11235 -2.70454,57.7207 -29.81692,68.36565c-27.11235,10.64492 -57.7207,-2.70454 -68.36565,-29.81692z" fill="#ffffff" fill-rule="nonzero" stroke="none" stroke-width="0"/><path d="M122.7218,194.99734c-10.64492,-27.11235 2.70454,-57.7207 29.81692,-68.36565c27.11235,-10.64492 57.7207,2.70454 68.36565,29.81692c10.64492,27.11235 -2.70454,57.7207 -29.81692,68.36565c-27.11235,10.64492 -57.7207,-2.70454 -68.36565,-29.81692z" fill="none" fill-rule="nonzero" stroke="#000000" stroke-width="5"/><g fill-rule="evenodd" stroke="none" stroke-width="1"><path d="M169.63791,128.97373l-2.96795,11.94424l-15.18074,4.57864l-13.32409,-6.81167c0,0 4.57115,-5.25378 4.52449,-5.37263c2.07728,-2.30501 7.50304,-3.82779 10.47296,-4.83707c1.36556,-0.45776 9.17865,-3.49595 10.36688,-2.60041c0.93138,0.69264 6.10848,3.09892 6.10848,3.09892z" fill="#d7d7d7"/><path d="M223.25866,172.38875c-0.21981,16.18607 -4.78705,32.12905 -18.664,41.90864c-0.34175,-0.21863 -16.40551,-11.05007 -16.40551,-11.05007c2.7803,-5.62855 3.87967,-10.27377 7.58403,-15.35382c4.70466,-6.44291 10.51766,-14.57525 15.16488,-21.06418z" fill="#ececec"/><path d="M169.58506,196.7253l4.01103,12.89834c0.88058,2.81937 2.38769,10.69398 2.38769,10.69398c0,0 -4.24668,5.07741 -5.86895,5.9593c-2.52071,1.40126 -8.82635,0.23176 -11.6359,-0.33098c-9.41505,-1.86928 -16.89646,-7.66282 -23.69623,-14.07676l6.28769,-18.70566c0.25826,-0.62074 27.86116,3.42644 28.5147,3.5618z" fill="#d7d7d7"/><path d="M147.91656,143.39123l0.33216,21.42742c0,0 -8.37464,11.91118 -10.41982,14.67401c0,0 -14.91266,0.34799 -15.02381,0.21528c-0.20577,0.00239 -3.05861,-4.7569 -3.32554,-4.75993c-0.78837,-7.59829 1.50239,-15.82733 5.03268,-22.55388c1.72284,-3.28295 6.72365,-9.54817 9.28861,-12.24064c0.85709,-0.87546 7.38248,-1.47766 7.38248,-1.47766z" fill="#ececec"/><path d="M204.59277,214.3177c-4.54058,3.89497 -9.67334,7.04481 -15.20474,9.33081c-3.12781,1.22072 -6.37551,2.10827 -9.68881,2.64778c-2.56558,0.40954 -7.3676,1.31504 -9.82516,0.32015c0.48471,-3.72287 1.31344,-7.39412 2.47562,-10.96701c0.66685,-1.76104 4.42305,-12.97607 8.59054,-15.34724l13.21877,6.7942z" fill="#d7d7d7"/><path d="M208.43691,170.48644l-12.66892,17.41889c0,0 -22.22411,1.22944 -22.69745,0.02383c-0.06999,-0.17829 -10.8279,-25.32217 -10.8946,-25.49198c-0.60358,-0.86052 16.41592,-20.58521 16.83697,-21.36787c0.42108,-0.78266 23.96417,9.21902 24.39045,8.42455c0.3606,-0.66091 5.03352,20.99262 5.03352,20.99262z" fill="#d7d7d7"/><path d="M171.49333,184.18787c0,0 -2.58766,7.07176 -2.65543,7.90189c-0.03097,-0.37978 -8.59811,8.55946 -8.59811,8.55946c0,0 -13.95524,-1.17436 -22.24296,-4.98553l-6.66691,-16.98043c0.19955,-0.29393 13.10223,-18.24552 13.27621,-18.52943l11.81031,-2.15784l8.85499,10.77111z" fill="#dbdbdb"/><path d="M168.83132,192.07302c-0.01108,-0.01845 -0.01899,-0.03859 -0.02343,-0.05969z" fill="#f0e6d2"/><path d="M172.3772,215.61904c0,0 -10.35591,-12.1122 -12.22596,-14.94482c2.44198,-6.06406 11.29171,-16.56456 11.29171,-16.56456c7.98541,1.18612 16.51975,1.76475 24.308,3.80239c0.56459,6.22609 -1.09206,12.96169 -1.60557,19.19951c-3.79612,2.71534 -18.94131,7.30942 -21.76819,8.5075z" fill="#000000"/><path d="M178.16347,125.06785l-0.06824,0.02678v0z" fill="#f0e6d2"/><path d="M206.50895,137.34863l-7.55944,13.10999c-6.72702,-0.56307 -22.96635,-2.74173 -22.96635,-2.74173l-11.14782,-2.92336l-1.35285,-6.9553c0,0 1.74745,-7.68259 2.97965,-9.55787c0.54192,-0.80074 4.03849,-3.47682 5.00112,-3.08064c0.95079,-0.68687 5.56028,-0.25269 6.64612,-0.16945l-0.23027,0.09041c1.53339,-0.18068 21.49088,5.70217 27.49207,11.18518c0.09452,0.0903 1.01138,0.89636 1.13774,1.04274z" fill="#ececec"/><path d="M176.18178,147.97211c0,0 -9.83872,19.23754 -10.36328,20.20782c-0.13609,0.20206 -0.29376,0.38884 -0.47027,0.557c-0.87672,-0.07713 -11.86502,-4.47422 -13.25613,-5.08433c-1.3911,-0.61008 -2.7388,-1.33524 -4.08319,-2.05187c-0.6316,-0.33016 -2.76117,-1.0913 -3.33935,-1.51102l3.30109,-16.66093c0.05978,-0.24886 15.53366,-5.55992 15.53366,-5.55992z" fill="#000000"/><path d="M223.24671,172.3836c-5.00928,0.10326 -10.0035,-0.54192 -14.81654,-1.91412c-0.54341,-1.1585 -10.25043,-19.86543 -10.41378,-20.28147c1.14382,-2.3011 6.80289,-12.2544 8.50103,-12.84273c8.46989,8.51175 17.75226,22.4271 16.72929,35.03832z" fill="#000000"/><path d="M141.60721,197.08792l-6.58173,14.8231l-0.23801,-0.00453c-10.13442,-9.59264 -14.6575,-23.31881 -15.29838,-36.88381c2.31438,0.17902 12.69466,1.47336 13.12982,1.70425c0.18462,0.09412 8.86751,20.15365 8.9883,20.36099z" fill="#000000"/><path d="M142.76568,133.15503l-1.63361,5.5409c-0.99141,0.23246 -4.69493,1.12803 -5.68299,1.36897c-0.52127,0.12627 -1.05926,0.21013 -1.59055,0.31089l-0.08332,-0.21224c0.33896,-0.28985 0.65416,-0.59 0.99647,-0.87138c0.86775,-0.72288 1.73221,-1.4542 2.61517,-2.16347c0.57666,-0.46158 1.1785,-0.88406 1.7618,-1.32868c0.40344,-0.27548 0.78249,-0.5849 1.1329,-0.92494c0.76311,-0.66153 1.59606,-1.23828 2.48415,-1.72005z" fill="#000000"/><path d="M165.97434,129.11866c0,0 -1.62188,-2.17553 -2.46195,-3.23718c2.51554,-0.37458 5.04877,-0.61686 7.58909,-0.72586l0.07668,0.19528c-0.14577,0.15522 -5.20382,3.76777 -5.20382,3.76777z" fill="#000000"/></g></g></g></g></svg>